<svg width="156" height="122" viewBox="0 0 156 122" fill="none" xmlns="http://www.w3.org/2000/svg">
<path d="M12.4728 2.5H106.652C107.48 2.5 108.152 3.17157 108.152 4V79.246C108.152 80.0744 107.48 80.746 106.652 80.746H12.4728C10.5398 80.746 8.97284 79.179 8.97284 77.246V5.99999C8.97284 4.067 10.5398 2.5 12.4728 2.5Z" stroke="white"/>
<rect x="18.9409" y="10.4744" width="79.2428" height="62.2971" rx="3.5" stroke="white"/>
<rect x="21" y="10" width="1" height="63" fill="white"/>
<rect x="20" y="11" width="1" height="61" fill="white"/>
<rect x="19" y="12" width="1" height="59" fill="white"/>
<path d="M107.153 2L125.597 6.84152C126.476 7.07232 127.089 7.86699 127.089 8.77599V79.246C127.089 80.3506 126.194 81.246 125.089 81.246H107.153V2Z" fill="white"/>
<path d="M129.086 20.3138C129.086 19.0766 130.198 18.1361 131.418 18.3416L147.354 21.0252C148.317 21.1873 149.022 22.021 149.022 22.9974V66.7859C149.022 67.8905 148.127 68.7859 147.022 68.7859H131.086C129.982 68.7859 129.086 67.8905 129.086 66.7859V20.3138Z" fill="white"/>
<path d="M121.61 91.2141H152C154.209 91.2141 156 93.0049 156 95.2141V115.125C156 117.334 154.209 119.125 152 119.125H121.61V91.2141Z" fill="white"/>
<path d="M4 91.7141H121.11V118.625H4C2.06701 118.625 0.5 117.058 0.5 115.125V95.2141C0.5 93.2811 2.067 91.7141 4 91.7141Z" stroke="white"/>
<rect x="43.0288" y="34.8946" width="8.30671" height="8.30671" fill="white"/>
<rect x="47.1821" y="30.7412" width="4.15335" height="4.15335" fill="white"/>
<rect x="43.0288" y="26.5879" width="4.15335" height="4.15335" fill="white"/>
<rect x="38.8754" y="22.4345" width="4.15335" height="4.15335" fill="white"/>
<rect width="8.30671" height="8.30671" transform="matrix(-1 0 0 1 71.1054 34.8946)" fill="white"/>
<rect width="4.15335" height="4.15335" transform="matrix(-1 0 0 1 66.9521 30.7412)" fill="white"/>
<rect width="4.15335" height="4.15335" transform="matrix(-1 0 0 1 71.1054 26.5879)" fill="white"/>
<rect width="4.15335" height="4.15335" transform="matrix(-1 0 0 1 75.2588 22.4345)" fill="white"/>
<path fill-rule="evenodd" clip-rule="evenodd" d="M50.8371 50.8434H46.8498V54.8307H50.8371V50.8434ZM62.7987 50.8434H50.8371V53.8339V55.8275V57.8211H62.7987V55.8275V54.8307H66.7859V50.8434H62.7987Z" fill="white"/>
<path d="M13.5 104H46.5" stroke="white"/>
</svg>
