<svg xmlns="http://www.w3.org/2000/svg" fill="none" class="ani-mid w-6 h-6 sm:w-16 sm:h-16 absolute" style="top:-5%;right:15%" viewBox="0 0 54 54"><path fill="#F06F6F" fill-rule="evenodd" d="M0 27c0-.084.064-.154.148-.163C14.202 25.37 25.37 14.202 26.837.147A.165.165 0 0 1 27 0c.084 0 .154.064.163.148 1.466 14.054 12.635 25.223 26.69 26.689.083.009.147.079.147.163a.165.165 0 0 1-.148.163C39.798 28.63 28.63 39.798 27.163 53.853A.165.165 0 0 1 27 54a.165.165 0 0 1-.163-.148C25.37 39.798 14.202 28.63.147 27.163A.165.165 0 0 1 0 27Z" clip-rule="evenodd"/></svg>