<svg width="856" height="207" viewBox="0 0 856 207" fill="none" xmlns="http://www.w3.org/2000/svg">
<mask id="mask0" mask-type="alpha" maskUnits="userSpaceOnUse" x="0" y="0" width="614" height="207">
<path d="M265.305 143.405C265.305 147.628 261.164 149.74 252.884 149.74C251.085 149.74 250.004 148.845 249.644 147.056C249.356 145.194 249.212 142.617 249.212 139.324C249.212 132.38 250.616 123.79 253.424 113.554C258.104 96.6592 263.109 86.709 268.437 83.7024C269.157 83.2728 269.949 83.0582 270.813 83.0582C271.677 83.0582 272.108 84.4542 272.108 87.2458C272.108 90.0377 271.965 92.5076 271.677 94.6549C271.101 98.95 270.057 104.498 268.544 111.298C267.104 118.099 266.385 122.108 266.385 123.325L265.305 143.405ZM272.648 114.52C272.648 113.589 273.152 112.981 274.161 112.694C275.241 112.408 276.573 112.158 278.157 111.943C279.741 111.657 281.469 111.263 283.341 110.762C285.213 110.261 286.941 109.33 288.525 107.97C292.197 104.82 294.033 99.5586 294.033 92.1851C294.033 87.4608 292.413 83.8455 289.173 81.3401C286.005 78.8347 281.397 77.5818 275.349 77.5818C269.372 77.5818 263.757 78.8347 258.501 81.3401C256.557 82.2705 254.792 83.1297 253.209 83.9171C251.696 84.7044 250.292 85.0984 248.996 85.0984C247.7 85.0984 247.052 84.7044 247.052 83.9171C247.052 82.7001 248.24 80.6958 250.616 77.9039C252.993 75.3269 256.736 72.9286 261.849 70.7097C267.033 68.4905 272.469 67.381 278.157 67.381C288.885 67.3091 297.237 69.8149 303.213 74.8973C308.397 79.3355 310.989 85.0984 310.989 92.1851C310.989 99.2006 308.433 105.5 303.321 111.084C298.209 116.596 291.801 119.352 284.097 119.352C276.464 119.352 272.648 117.741 272.648 114.52Z" fill="white"/>
<path d="M376.253 122.788C377.55 122.788 378.2 124.435 378.2 127.727C378.2 129.517 377.441 131.701 375.93 134.278C374.419 136.783 372.44 139.109 369.989 141.257C367.614 143.333 364.952 145.051 361.998 146.411C359.046 147.771 356.166 148.452 353.358 148.452C349.542 148.452 346.986 145.123 345.69 138.465C343.818 141.544 341.37 144.085 338.346 146.089C335.322 148.022 331.254 148.988 326.142 148.988C321.102 148.988 317.034 147.413 313.938 144.264C310.842 141.114 309.33 137.284 309.402 132.774C309.402 120.605 313.47 111.012 321.606 103.997C325.062 101.062 328.266 99.129 331.218 98.1986C334.242 97.2679 337.41 96.8027 340.722 96.8027C344.034 96.8027 346.734 97.3754 348.822 98.5208C349.83 96.4446 350.982 95.4067 352.278 95.4067C354.798 95.4067 357.174 96.5161 359.406 98.7354C361.71 100.883 362.862 102.923 362.862 104.856C361.854 107.218 360.378 110.046 358.434 113.339C357.858 116.632 357.57 121.249 357.57 127.191C357.57 133.132 358.326 136.103 359.838 136.103C361.71 136.103 366.245 132.38 373.446 124.936C374.743 123.504 375.68 122.788 376.253 122.788ZM325.278 129.231C325.278 134.743 327.33 137.499 331.434 137.499C335.826 137.427 339.462 135.101 342.342 130.519C343.35 128.944 344.178 127.012 344.826 124.721C344.826 116.703 345.546 109.831 346.986 104.104C341.154 105.25 336.078 108.042 331.758 112.48C327.438 116.918 325.278 122.502 325.278 129.231Z" fill="white"/>
<path d="M397.425 96.1584C402.252 96.0868 405.851 96.9817 408.226 98.8429C410.601 100.633 411.788 103.245 411.788 106.681C411.788 110.046 410.746 112.945 408.658 115.379C406.642 117.741 404.158 119.424 401.206 120.426C403.294 122.573 405.164 124.757 406.82 126.976C408.549 129.195 409.413 131.522 409.413 133.956C409.413 138.752 407.507 142.474 403.69 145.123C399.873 147.7 394.546 148.988 387.707 148.988C380.938 148.988 375.861 147.664 372.476 145.016C369.095 142.295 367.403 139.253 367.403 135.888C367.403 132.452 368.231 129.338 369.887 126.546C371.612 123.754 373.45 122.358 375.393 122.358C376.548 122.358 377.375 122.788 377.877 123.647C378.381 124.435 379.318 126.797 380.688 130.734C381.189 132.166 382.017 133.526 383.171 134.814C385.833 137.749 390.046 139.217 395.806 139.217C394.941 136.497 393.54 134.17 391.593 132.237C389.723 130.233 387.849 128.3 385.979 126.439C384.105 124.578 382.449 122.609 381.011 120.533C379.569 118.385 378.85 115.88 378.85 113.017C378.85 107.863 380.793 103.675 384.682 100.453C388.354 97.59 392.603 96.1584 397.425 96.1584ZM396.993 116.023C399.873 112.945 401.315 110.476 401.315 108.614C401.315 107.755 400.992 107.003 400.342 106.359C399.764 105.643 398.903 105.285 397.749 105.285C396.597 105.285 395.483 105.429 394.4 105.715C393.394 106.001 392.566 106.216 391.916 106.359C391.916 109.08 393.609 112.301 396.993 116.023Z" fill="white"/>
<path d="M440.776 96.1584C445.598 96.0868 449.197 96.9817 451.576 98.8429C453.951 100.633 455.139 103.245 455.139 106.681C455.139 110.046 454.093 112.945 452.004 115.379C449.989 117.741 447.505 119.424 444.552 120.426C446.641 122.573 448.515 124.757 450.171 126.976C451.899 129.195 452.763 131.522 452.763 133.956C452.763 138.752 450.853 142.474 447.036 145.123C443.223 147.7 437.896 148.988 431.054 148.988C424.285 148.988 419.211 147.664 415.827 145.016C412.442 142.295 410.75 139.253 410.75 135.888C410.75 132.452 411.578 129.338 413.234 126.546C414.962 123.754 416.796 122.358 418.743 122.358C419.894 122.358 420.722 122.788 421.227 123.647C421.732 124.435 422.665 126.797 424.034 130.734C424.539 132.166 425.367 133.526 426.518 134.814C429.184 137.749 433.393 139.217 439.152 139.217C438.292 136.497 436.886 134.17 434.943 132.237C433.069 130.233 431.199 128.3 429.325 126.439C427.455 124.578 425.799 122.609 424.357 120.533C422.919 118.385 422.196 115.88 422.196 113.017C422.196 107.863 424.143 103.675 428.029 100.453C431.7 97.59 435.949 96.1584 440.776 96.1584ZM440.343 116.023C443.223 112.945 444.661 110.476 444.661 108.614C444.661 107.755 444.338 107.003 443.692 106.359C443.114 105.643 442.25 105.285 441.099 105.285C439.948 105.285 438.829 105.429 437.751 105.715C436.741 106.001 435.913 106.216 435.267 106.359C435.267 109.08 436.959 112.301 440.343 116.023Z" fill="white"/>
<path d="M473.863 94.5474C476.452 94.5474 478.904 97.0173 481.206 101.957C484.591 98.4488 488.767 96.6951 493.735 96.6951C498.775 96.6951 502.556 97.8046 505.073 100.024C507.593 102.172 508.853 105.25 508.853 109.259C508.853 113.196 508.316 117.204 507.233 121.285C506.228 125.365 505.468 128.3 504.967 130.09C504.535 131.808 504.317 133.24 504.317 134.385C504.317 135.53 504.713 136.103 505.505 136.103C506.587 136.103 507.92 135.423 509.503 134.063C511.087 132.703 512.67 131.235 514.253 129.66C515.837 128.014 517.278 126.51 518.575 125.15C519.944 123.79 520.877 123.11 521.382 123.11C522.392 123.11 522.893 124.327 522.893 126.761C522.893 131.772 520.409 136.604 515.441 141.257C507.092 146.125 501.761 148.559 499.458 148.559C499.244 148.559 499.099 148.523 499.026 148.452C493.266 148.452 490.387 143.87 490.387 134.707C490.387 130.77 490.746 127.155 491.465 123.862C492.257 120.569 492.834 118.171 493.194 116.667C493.553 115.164 493.735 113.625 493.735 112.05C493.735 109.473 492.221 108.185 489.199 108.185C486.247 108.185 483.403 110.404 480.665 114.842C478.003 119.209 476.202 123.754 475.265 128.479V129.231C475.265 131.665 475.624 134.17 476.347 136.747C477.139 139.324 477.534 141.114 477.534 142.116C477.534 144.55 474.473 146.948 468.354 149.311C467.417 149.669 466.589 149.847 465.87 149.847C464.069 149.847 462.808 148.917 462.089 147.056C461.443 145.195 461.12 142.295 461.12 138.358C461.12 128.193 461.516 120.855 462.307 116.345C463.386 109.616 465.834 103.353 469.65 97.554C470.947 95.5497 472.349 94.5474 473.863 94.5474Z" fill="white"/>
<path d="M530.465 148.452C523.267 148.452 519.668 141.758 519.668 128.372C519.668 121.07 520.565 114.448 522.366 108.507C525.173 99.3437 528.344 94.7624 531.87 94.7624C533.958 94.7624 535.614 96.1584 536.838 98.95C537.848 101.098 538.316 103.209 538.244 105.285C538.244 108.149 537.379 113.196 535.651 120.426C533.995 126.725 533.167 130.627 533.167 132.13C533.167 133.633 533.526 134.671 534.245 135.244C535.037 135.817 535.937 136.103 536.947 136.103C538.026 136.103 539.358 135.423 540.942 134.063C542.525 132.703 544.112 131.235 545.696 129.66C547.279 128.014 548.717 126.51 550.013 125.15C551.383 123.79 552.319 123.11 552.824 123.11C553.83 123.11 554.335 124.327 554.335 126.761C554.335 131.772 551.778 136.676 546.665 141.472C541.628 146.196 536.228 148.523 530.465 148.452ZM534.895 86.0648C532.949 83.2013 531.979 80.1232 531.979 76.8301C531.979 73.5373 532.484 70.8169 533.49 68.6695C534.572 66.4503 535.578 64.8397 536.515 63.8374C537.452 62.7635 538.53 62.2267 539.754 62.2267C541.77 62.2267 543.607 63.7299 545.263 66.7364C546.919 69.6715 547.747 72.1413 547.747 74.1456C547.747 77.8683 546.415 80.803 543.749 82.9507C541.16 85.0269 538.207 86.0648 534.895 86.0648Z" fill="white"/>
<path d="M569.348 103.138C573.092 98.9144 577.882 96.8026 583.711 96.8026C592.064 96.8026 597.358 100.167 599.588 106.896C600.238 108.901 600.561 111.12 600.561 113.554C600.561 118.994 598.76 124.363 595.161 129.66C591.631 134.957 587.35 138.537 582.309 140.398H583.606C588.861 140.398 594.188 138.465 599.588 134.6C603.045 132.166 605.744 129.66 607.69 127.083C609.706 124.435 611.216 123.11 612.226 123.11C613.232 123.11 613.737 124.256 613.737 126.546C613.737 130.555 612.008 134.6 608.555 138.68C603.369 144.55 596.745 147.986 588.679 148.988C582.85 149.633 578.71 149.74 576.259 149.311C573.811 148.881 571.941 148.344 570.645 147.7C567.837 146.268 566.432 144.121 566.432 141.257C566.432 139.682 566.755 138.251 567.405 136.962C573.092 136.962 577.414 134.814 580.366 130.519C583.315 126.224 584.793 120.855 584.793 114.413C584.793 112.838 584.216 111.442 583.065 110.225C581.913 108.936 580.366 108.292 578.42 108.292C576.549 108.292 574.498 109.115 572.264 110.762C570.031 112.408 568.233 114.484 566.864 116.989C565.568 119.424 564.38 121.858 563.301 124.292C562.219 126.654 561.355 129.66 560.709 133.311C559.557 139.897 558.225 148.201 556.714 158.223C555.272 168.316 554.371 173.721 554.012 174.437C553.652 175.224 553.111 175.941 552.392 176.585C551.673 177.229 550.918 177.551 550.122 177.551C548.684 177.551 547.497 177.122 546.56 176.263C543.967 174.043 542.456 172.325 542.024 171.108C541.592 169.963 541.378 168.46 541.378 166.598C541.378 159.583 542.565 149.74 544.94 137.07C547.315 124.399 551.419 111.227 557.251 97.554C558.116 95.5497 559.63 94.5474 561.787 94.5474C564.021 94.5474 566.145 96.4805 568.161 100.346C568.738 101.348 569.134 102.279 569.348 103.138Z" fill="white"/>
<path d="M183.393 32.7344L204.555 43.539C207.397 44.9898 208.591 48.4031 207.269 51.2942C205.854 54.392 202.118 55.6801 199.077 54.1196L178.287 43.4511L174.761 67.312C174.279 70.5699 171.239 72.8277 167.961 72.3618C164.661 71.8933 162.374 68.8453 162.863 65.5671L166.515 41.0539L141.86 44.6855C138.563 45.171 135.497 42.8977 135.026 39.6169C134.557 36.3572 136.828 33.3345 140.104 32.8559L164.104 29.3502L153.374 8.68024C151.804 5.65666 153.1 1.94249 156.215 0.534495C159.123 -0.779613 162.556 0.408247 164.016 3.23323L174.883 24.2739L190.909 8.33988C193.259 6.00354 197.069 6.00358 199.419 8.33988C201.769 10.6762 201.769 14.4641 199.419 16.8004L183.393 32.7344Z" fill="white"/>
<path d="M143.923 63.8846C119.219 39.3235 79.1666 39.3235 54.4632 63.8846C47.5446 70.7631 42.5639 78.8383 39.5207 87.4401L1.38684 181.673C-4.70024 196.715 10.3295 211.668 25.4626 205.626L123.74 166.387L123.706 166.354C131.055 163.286 137.939 158.778 143.923 152.829C168.627 128.268 168.627 88.446 143.923 63.8846Z" fill="white"/>
</mask>
<g mask="url(#mask0)">
<path d="M112.349 120.18C110.215 118.059 106.766 118.069 104.645 120.203C102.524 122.336 102.534 125.785 104.667 127.906L112.349 120.18ZM116.668 158.144C114.535 160.266 114.524 163.714 116.646 165.848C118.767 167.982 122.216 167.991 124.349 165.87L116.668 158.144ZM59.3916 129.533C61.5251 131.655 64.9744 131.644 67.0956 129.511C69.2164 127.378 69.2066 123.928 67.0731 121.807L59.3916 129.533ZM32.1174 107.706C29.9839 109.828 29.9739 113.277 32.0951 115.41C34.2163 117.544 37.6653 117.553 39.7988 115.432L32.1174 107.706ZM53.4361 160.313C51.3026 158.192 47.8537 158.202 45.7325 160.336C43.6113 162.469 43.6211 165.918 45.7546 168.04L53.4361 160.313ZM55.5733 183.092C53.4401 185.213 53.43 188.662 55.5512 190.796C57.6724 192.929 61.1213 192.939 63.2548 190.818L55.5733 183.092ZM89.9393 85.061C92.0725 87.1822 95.5218 87.1724 97.643 85.0388C99.7642 82.9053 99.754 79.4564 97.6205 77.3352L89.9393 85.061ZM51.7551 65.4036C49.6215 67.5248 49.6117 70.9737 51.7329 73.1073C53.8541 75.2409 57.3031 75.2507 59.4366 73.1298L51.7551 65.4036ZM104.667 127.906C111.103 134.306 115.367 141.267 117.222 147.138C119.167 153.29 118.11 156.711 116.668 158.144L124.349 165.87C130.138 160.115 130.009 151.443 127.61 143.854C125.123 135.986 119.77 127.559 112.349 120.18L104.667 127.906ZM67.0731 121.807C61.0661 115.835 54.7108 111.035 49.1596 108.165C46.4134 106.745 43.5811 105.649 40.9127 105.264C38.3695 104.897 34.7988 105.04 32.1174 107.706L39.7988 115.432C38.9251 116.301 38.2365 115.885 39.3572 116.047C40.353 116.191 41.9669 116.711 44.1564 117.843C48.4765 120.076 53.9507 124.124 59.3916 129.533L67.0731 121.807ZM45.7546 168.04C49.9084 172.169 52.8083 176.406 54.2474 179.744C54.9734 181.428 55.212 182.617 55.2309 183.296C55.2494 183.956 55.07 183.593 55.5733 183.092L63.2548 190.818C65.566 188.52 66.1928 185.534 66.1213 182.99C66.0504 180.465 65.3031 177.869 64.2521 175.431C62.1374 170.525 58.3203 165.17 53.4361 160.313L45.7546 168.04ZM97.6205 77.3352C90.1979 69.9555 81.728 64.6392 73.8271 62.1704C66.2124 59.791 57.5278 59.6643 51.7551 65.4036L59.4366 73.1298C60.8943 71.6805 64.3727 70.6302 70.5776 72.5691C76.4967 74.4187 83.5034 78.6629 89.9393 85.061L97.6205 77.3352ZM183.393 32.7344L175.711 25.0084L165.054 35.6042L178.438 42.4375L183.393 32.7344ZM178.287 43.4511L183.261 33.7581L169.732 26.8157L167.509 41.8587L178.287 43.4511ZM166.515 41.0539L177.291 42.6598L179.455 28.1357L164.927 30.2755L166.515 41.0539ZM164.104 29.3502L165.679 40.1304L180.827 37.9177L173.774 24.3306L164.104 29.3502ZM174.883 24.2739L165.203 29.2734L172.024 42.4796L182.564 31.9999L174.883 24.2739ZM39.5207 87.44L49.6197 91.5267L49.7105 91.3022L49.7915 91.0738L39.5207 87.44ZM123.74 166.387L127.78 176.506L143.022 170.42L131.496 158.736L123.74 166.387ZM123.706 166.354L119.51 156.3L104.616 162.516L115.951 174.005L123.706 166.354ZM178.438 42.4375L199.601 53.2422L209.509 33.8358L188.346 23.0312L178.438 42.4375ZM204.05 44.4265L183.261 33.7581L173.313 53.1441L194.102 63.8126L204.05 44.4265ZM167.509 41.8587L163.983 65.7196L185.538 68.9048L189.064 45.0439L167.509 41.8587ZM173.638 67.1726L177.291 42.6598L155.739 39.4484L152.087 63.9612L173.638 67.1726ZM164.927 30.2755L140.272 33.9071L143.448 55.464L168.103 51.8324L164.927 30.2755ZM141.68 43.6363L165.679 40.1304L162.53 18.5699L138.53 22.0755L141.68 43.6363ZM173.774 24.3306L163.043 3.66058L143.704 13.6999L154.435 34.3699L173.774 24.3306ZM154.336 8.23277L165.203 29.2734L184.563 19.2743L173.696 -1.76635L154.336 8.23277ZM182.564 31.9999L198.591 16.0658L183.228 0.613874L167.202 16.5479L182.564 31.9999ZM191.738 9.07442L175.711 25.0084L191.074 40.4605L207.1 24.5264L191.738 9.07442ZM191.738 16.0658C189.803 14.1425 189.803 10.9978 191.738 9.07442L207.1 24.5264C213.735 17.9304 213.735 7.2099 207.1 0.613878L191.738 16.0658ZM160.702 10.4625C158.36 11.5211 155.552 10.5874 154.336 8.23277L173.696 -1.76635C169.561 -9.77096 159.887 -13.0803 151.729 -9.3935L160.702 10.4625ZM163.043 3.66058C164.371 6.21917 163.245 9.31313 160.702 10.4625L151.729 -9.3935C142.955 -5.42821 139.237 5.09407 143.704 13.6999L163.043 3.66058ZM145.81 38.0673C146.204 40.8098 144.29 43.2546 141.68 43.6363L138.53 22.0755C129.366 23.4142 122.911 31.9045 124.242 41.1661L145.81 38.0673ZM169.493 61.5752C172.122 61.9489 174.049 64.414 173.638 67.1726L152.087 63.9612C150.699 73.2765 157.2 81.8376 166.429 83.1483L169.493 61.5752ZM163.983 65.7196C164.386 62.993 166.894 61.2062 169.493 61.5752L166.429 83.1483C175.585 84.4487 184.173 78.1472 185.538 68.9048L163.983 65.7196ZM140.272 33.9071C142.886 33.5221 145.415 35.3208 145.81 38.0673L124.242 41.1661C125.579 50.4742 134.239 56.8204 143.448 55.464L140.272 33.9071ZM198.591 16.0658C196.691 17.9545 193.637 17.9545 191.738 16.0658L207.1 0.613878C200.501 -5.94742 189.827 -5.94746 183.228 0.613874L198.591 16.0658ZM197.361 46.7645C198.544 44.1778 201.601 43.1697 204.05 44.4265L194.102 63.8126C202.634 68.1905 213.163 64.6058 217.178 55.8242L197.361 46.7645ZM199.601 53.2422C197.278 52.0561 196.243 49.2104 197.361 46.7645L217.178 55.8242C220.939 47.5962 217.516 37.9235 209.509 33.8358L199.601 53.2422ZM62.1443 71.6107C82.5988 51.2746 115.787 51.2746 136.242 71.6107L151.604 56.1587C122.651 27.3725 75.7348 27.3725 46.7816 56.1587L62.1443 71.6107ZM49.7915 91.0738C52.2998 83.9839 56.4071 77.3148 62.1443 71.6107L46.7816 56.1587C38.6821 64.2114 32.828 73.6927 29.2498 83.8059L49.7915 91.0738ZM11.486 185.76L49.6197 91.5267L29.4215 83.3531L-8.7123 177.586L11.486 185.76ZM21.4228 195.507C15.0335 198.059 9.06657 191.739 11.486 185.76L-8.7123 177.586C-18.467 201.691 5.62543 225.277 29.5023 215.744L21.4228 195.507ZM119.7 156.269L21.4228 195.507L29.5023 215.744L127.78 176.506L119.7 156.269ZM115.951 174.005L115.984 174.039L131.496 158.736L131.462 158.702L115.951 174.005ZM136.242 145.103C131.277 150.039 125.582 153.765 119.51 156.3L127.903 176.408C136.528 172.808 144.602 167.517 151.604 160.555L136.242 145.103ZM136.242 71.6107C156.661 91.9123 156.661 124.801 136.242 145.103L151.604 160.555C180.593 131.734 180.593 84.9797 151.604 56.1587L136.242 71.6107Z" fill="white"/>
</g>
<path d="M273.39 63.6661H331.722C337.775 63.6661 342.938 64.1957 347.213 65.255C351.525 66.2763 355.044 67.7895 357.767 69.7944C360.491 71.7994 362.477 74.2961 363.725 77.2846C365.012 80.273 365.655 83.7155 365.655 87.6119C365.655 91.5082 365.012 94.9507 363.725 97.9392C362.477 100.928 360.491 103.443 357.767 105.486C355.044 107.529 351.525 109.08 347.213 110.139C342.938 111.16 337.775 111.671 331.722 111.671H296.768V135.22H312.997V141.632H273.39V135.22H289.675V70.0214H273.39V63.6661ZM357.881 87.6119C357.881 83.9046 357.294 80.9161 356.122 78.6464C354.949 76.3767 353.114 74.6365 350.618 73.426C348.121 72.1777 344.924 71.3454 341.028 70.9293C337.169 70.5132 332.554 70.3051 327.183 70.3051H296.768V105.032H327.183C329.263 105.032 331.457 105.051 333.765 105.089C336.11 105.089 338.418 104.975 340.688 104.748C342.995 104.484 345.17 104.049 347.213 103.443C349.294 102.8 351.128 101.836 352.717 100.549C354.306 99.2632 355.554 97.5798 356.462 95.4992C357.408 93.4186 357.881 90.7895 357.881 87.6119Z" fill="white"/>
<path d="M434.7 135.333C432.96 136.203 431.031 137.111 428.912 138.057C426.794 138.965 424.505 139.797 422.046 140.553C419.587 141.31 416.977 141.934 414.216 142.426C411.454 142.918 408.56 143.164 405.534 143.164C402.129 143.164 399.046 142.823 396.285 142.142C393.523 141.461 391.178 140.459 389.249 139.135C387.319 137.773 385.825 136.109 384.766 134.141C383.707 132.137 383.177 129.829 383.177 127.219C383.177 123.171 384.482 119.861 387.092 117.289C389.702 114.716 393.296 112.674 397.874 111.16C402.489 109.609 407.936 108.475 414.216 107.756C420.495 107.037 427.323 106.507 434.7 106.167V103.5C434.7 101.495 434.151 99.7739 433.054 98.3364C431.957 96.8989 430.482 95.7262 428.628 94.8183C426.775 93.9104 424.619 93.2484 422.16 92.8323C419.739 92.3783 417.166 92.1513 414.443 92.1513C411.265 92.1513 408.485 92.3594 406.101 92.7755C403.756 93.1538 401.77 93.7402 400.143 94.5346C398.517 95.2911 397.212 96.2369 396.228 97.3717C395.282 98.4688 394.582 99.736 394.128 101.174L386.922 99.4712C388.133 95.2344 391.008 91.9433 395.547 89.5979C400.124 87.2525 406.347 86.0798 414.216 86.0798C418.188 86.0798 421.857 86.4202 425.224 87.1012C428.591 87.7821 431.485 88.8602 433.906 90.3355C436.364 91.8109 438.275 93.7402 439.637 96.1234C441.036 98.4688 441.736 101.325 441.736 104.692V135.22H455.241V141.632H434.7V135.333ZM434.7 112.125C426.415 112.428 419.436 112.976 413.762 113.771C408.087 114.527 403.491 115.53 399.973 116.778C396.493 117.989 393.977 119.445 392.426 121.147C390.913 122.812 390.156 124.722 390.156 126.878C390.156 130.207 391.594 132.742 394.469 134.482C397.382 136.222 401.638 137.092 407.236 137.092C409.619 137.092 412.154 136.827 414.84 136.298C417.563 135.768 420.193 135.106 422.727 134.312C425.262 133.479 427.588 132.553 429.707 131.531C431.825 130.51 433.489 129.507 434.7 128.524V112.125Z" fill="white"/>
<path d="M474.409 141.632V121.771H480.764V125.233C480.764 127.313 481.464 129.11 482.864 130.623C484.301 132.099 486.136 133.328 488.368 134.312C490.6 135.257 493.059 135.957 495.745 136.411C498.468 136.865 501.116 137.092 503.689 137.092C506.715 137.092 509.495 136.941 512.03 136.638C514.564 136.298 516.759 135.749 518.612 134.993C520.466 134.236 521.903 133.252 522.925 132.042C523.946 130.794 524.457 129.262 524.457 127.446C524.457 125.743 523.984 124.306 523.038 123.133C522.13 121.923 520.882 120.92 519.293 120.126C517.742 119.331 515.907 118.669 513.789 118.14C511.708 117.61 509.476 117.156 507.093 116.778C504.748 116.362 502.327 115.984 499.83 115.643C497.333 115.265 494.893 114.83 492.51 114.338C490.165 113.808 487.933 113.184 485.814 112.465C483.734 111.747 481.899 110.839 480.31 109.742C478.759 108.607 477.511 107.245 476.565 105.656C475.657 104.067 475.203 102.157 475.203 99.9252C475.203 97.0502 475.922 94.7048 477.36 92.889C478.797 91.0354 480.67 89.579 482.977 88.5198C485.285 87.4605 487.895 86.7418 490.808 86.3635C493.759 85.9474 496.728 85.7393 499.717 85.7393C504.067 85.7393 508.058 86.2311 511.689 87.2147C515.321 88.1982 518.385 89.4844 520.882 91.0732V87.6119H527.237V105.826H520.882V101.627C520.882 100.417 520.56 99.3388 519.917 98.3931C519.274 97.4096 518.404 96.5584 517.307 95.8397C516.21 95.0831 514.962 94.4589 513.562 93.9671C512.162 93.4375 510.687 93.0214 509.136 92.7188C507.623 92.3783 506.091 92.1324 504.54 91.9811C503.027 91.8298 501.608 91.7541 500.284 91.7541C494.307 91.7541 489.787 92.3405 486.722 93.5132C483.696 94.6859 482.183 96.8232 482.183 99.9252C482.183 101.401 482.637 102.649 483.545 103.67C484.49 104.654 485.739 105.505 487.29 106.224C488.879 106.905 490.713 107.491 492.794 107.983C494.912 108.437 497.144 108.872 499.49 109.288C501.873 109.666 504.313 110.063 506.81 110.479C509.306 110.858 511.727 111.35 514.073 111.955C516.456 112.522 518.688 113.222 520.768 114.054C522.887 114.887 524.722 115.927 526.273 117.175C527.861 118.386 529.11 119.861 530.018 121.601C530.963 123.341 531.436 125.403 531.436 127.786C531.436 129.867 531.039 131.683 530.245 133.234C529.45 134.785 528.391 136.146 527.067 137.319C525.743 138.454 524.211 139.4 522.471 140.156C520.768 140.913 518.972 141.499 517.08 141.915C515.189 142.369 513.278 142.691 511.349 142.88C509.42 143.069 507.604 143.164 505.902 143.164C500.227 143.164 495.291 142.558 491.092 141.348C486.93 140.137 483.488 138.567 480.764 136.638V141.632H474.409Z" fill="white"/>
<path d="M553.101 141.632V121.771H559.456V125.233C559.456 127.313 560.156 129.11 561.556 130.623C562.993 132.099 564.828 133.328 567.06 134.312C569.292 135.257 571.75 135.957 574.436 136.411C577.16 136.865 579.808 137.092 582.38 137.092C585.407 137.092 588.187 136.941 590.722 136.638C593.256 136.298 595.45 135.749 597.304 134.993C599.158 134.236 600.595 133.252 601.616 132.042C602.638 130.794 603.148 129.262 603.148 127.446C603.148 125.743 602.676 124.306 601.73 123.133C600.822 121.923 599.574 120.92 597.985 120.126C596.434 119.331 594.599 118.669 592.481 118.14C590.4 117.61 588.168 117.156 585.785 116.778C583.44 116.362 581.019 115.984 578.522 115.643C576.025 115.265 573.585 114.83 571.202 114.338C568.857 113.808 566.625 113.184 564.506 112.465C562.426 111.747 560.591 110.839 559.002 109.742C557.451 108.607 556.203 107.245 555.257 105.656C554.349 104.067 553.895 102.157 553.895 99.9252C553.895 97.0502 554.614 94.7048 556.051 92.889C557.489 91.0354 559.362 89.579 561.669 88.5198C563.977 87.4605 566.587 86.7418 569.5 86.3635C572.45 85.9474 575.42 85.7393 578.408 85.7393C582.759 85.7393 586.75 86.2311 590.381 87.2147C594.013 88.1982 597.077 89.4844 599.574 91.0732V87.6119H605.929V105.826H599.574V101.627C599.574 100.417 599.252 99.3388 598.609 98.3931C597.966 97.4096 597.096 96.5584 595.999 95.8397C594.902 95.0831 593.653 94.4589 592.254 93.9671C590.854 93.4375 589.379 93.0214 587.828 92.7188C586.315 92.3783 584.783 92.1324 583.232 91.9811C581.718 91.8298 580.3 91.7541 578.976 91.7541C572.999 91.7541 568.478 92.3405 565.414 93.5132C562.388 94.6859 560.875 96.8232 560.875 99.9252C560.875 101.401 561.329 102.649 562.237 103.67C563.182 104.654 564.431 105.505 565.982 106.224C567.57 106.905 569.405 107.491 571.486 107.983C573.604 108.437 575.836 108.872 578.181 109.288C580.565 109.666 583.005 110.063 585.501 110.479C587.998 110.858 590.419 111.35 592.764 111.955C595.148 112.522 597.38 113.222 599.46 114.054C601.579 114.887 603.413 115.927 604.964 117.175C606.553 118.386 607.801 119.861 608.709 121.601C609.655 123.341 610.128 125.403 610.128 127.786C610.128 129.867 609.731 131.683 608.936 133.234C608.142 134.785 607.083 136.146 605.759 137.319C604.435 138.454 602.903 139.4 601.162 140.156C599.46 140.913 597.663 141.499 595.772 141.915C593.88 142.369 591.97 142.691 590.041 142.88C588.111 143.069 586.296 143.164 584.593 143.164C578.919 143.164 573.982 142.558 569.783 141.348C565.622 140.137 562.18 138.567 559.456 136.638V141.632H553.101Z" fill="white"/>
<path d="M629.296 87.6119H649.156V97.8257C650.934 96.1234 652.92 94.5535 655.114 93.116C657.308 91.6406 659.673 90.3545 662.207 89.2574C664.742 88.1604 667.409 87.3092 670.208 86.704C673.007 86.0609 675.882 85.7393 678.833 85.7393C682.351 85.7393 685.415 86.1933 688.025 87.1012C690.673 87.9712 692.867 89.2196 694.608 90.8462C696.348 92.4729 697.653 94.4589 698.523 96.8043C699.393 99.1119 699.828 101.703 699.828 104.578V135.22H712.652V141.632H679.968V135.22H692.735V106.678C692.735 103.803 692.357 101.438 691.6 99.5847C690.881 97.6933 689.841 96.199 688.479 95.102C687.117 94.005 685.453 93.2484 683.486 92.8323C681.557 92.3783 679.381 92.1513 676.96 92.1513C674.123 92.1513 671.343 92.5296 668.619 93.2862C665.895 94.0428 663.323 94.9885 660.902 96.1234C658.519 97.2582 656.306 98.5255 654.263 99.9252C652.258 101.287 650.556 102.592 649.156 103.84V135.22H661.98V141.632H629.296V135.22H642.063V93.9671H629.296V87.6119Z" fill="white"/>
<path d="M728.756 87.6119H748.616V135.22H761.44V141.632H728.756V135.22H741.523V93.9671H728.756V87.6119ZM737.948 72.4614C737.948 71.5913 738.099 70.778 738.402 70.0214C738.743 69.227 739.197 68.5461 739.764 67.9786C740.331 67.4112 740.993 66.9573 741.75 66.6168C742.507 66.2763 743.32 66.1061 744.19 66.1061C745.06 66.1061 745.873 66.2763 746.63 66.6168C747.424 66.9573 748.105 67.4112 748.673 67.9786C749.278 68.5461 749.751 69.227 750.091 70.0214C750.432 70.778 750.602 71.5913 750.602 72.4614C750.602 73.3314 750.432 74.1637 750.091 74.9581C749.751 75.7147 749.278 76.3767 748.673 76.9441C748.105 77.5115 747.424 77.9655 746.63 78.3059C745.873 78.6086 745.06 78.7599 744.19 78.7599C743.32 78.7599 742.507 78.6086 741.75 78.3059C740.993 77.9655 740.331 77.5115 739.764 76.9441C739.197 76.3767 738.743 75.7147 738.402 74.9581C738.099 74.1637 737.948 73.3314 737.948 72.4614Z" fill="white"/>
<path d="M776.466 87.6119H796.326V95.4992C798.104 94.0239 799.957 92.6999 801.887 91.5272C803.816 90.3545 805.878 89.3709 808.072 88.5765C810.304 87.7443 812.668 87.1201 815.165 86.704C817.699 86.2878 820.442 86.0798 823.392 86.0798C827.364 86.0798 831.204 86.6472 834.911 87.7821C838.619 88.8791 841.91 90.6003 844.785 92.9457C847.66 95.2533 849.967 98.2229 851.707 101.854C853.447 105.448 854.318 109.723 854.318 114.678C854.318 119.634 853.391 123.909 851.537 127.502C849.684 131.058 847.206 134.009 844.104 136.354C841.002 138.662 837.427 140.383 833.379 141.518C829.332 142.615 825.114 143.164 820.725 143.164C818.191 143.164 815.789 142.993 813.519 142.653C811.249 142.313 809.093 141.859 807.05 141.291C805.045 140.686 803.135 140.005 801.319 139.248C799.541 138.454 797.877 137.622 796.326 136.752V157.576H809.093V163.932H776.466V157.576H789.233V93.9671H776.466V87.6119ZM796.326 130.453C799.125 132.345 802.53 133.933 806.54 135.22C810.587 136.468 815.278 137.092 820.612 137.092C824.508 137.092 828.083 136.619 831.337 135.674C834.628 134.69 837.446 133.252 839.791 131.361C842.175 129.432 844.028 127.086 845.352 124.325C846.676 121.526 847.338 118.31 847.338 114.678C847.338 107.302 845.182 101.703 840.869 97.8824C836.557 94.0617 830.183 92.1513 821.747 92.1513C818.948 92.1513 816.299 92.4729 813.803 93.116C811.344 93.7212 809.036 94.5346 806.88 95.5559C804.762 96.5773 802.813 97.7122 801.035 98.9605C799.295 100.209 797.726 101.457 796.326 102.706V130.453Z" fill="white"/>
<path fill-rule="evenodd" clip-rule="evenodd" d="M271.89 62.1661H331.722C337.851 62.1661 343.14 62.7013 347.566 63.7971C352.014 64.8512 355.73 66.4322 358.656 68.5864C361.587 70.7434 363.748 73.4513 365.106 76.6986C366.485 79.9059 367.155 83.5541 367.155 87.6119C367.155 91.6696 366.485 95.3178 365.106 98.5251C363.749 101.77 361.591 104.493 358.667 106.686C355.741 108.881 352.023 110.502 347.571 111.596L347.562 111.598C343.139 112.655 337.851 113.171 331.722 113.171H298.268V133.72H314.497V143.132H271.89V133.72H288.175V71.5214H271.89V62.1661ZM289.675 70.0214V135.22H273.39V141.632H312.997V135.22H296.768V111.671H331.722C337.775 111.671 342.938 111.16 347.213 110.139C351.525 109.08 355.044 107.529 357.767 105.486C360.491 103.443 362.477 100.928 363.725 97.9392C365.012 94.9507 365.655 91.5082 365.655 87.6119C365.655 83.7155 365.012 80.273 363.725 77.2846C362.477 74.2961 360.491 71.7994 357.767 69.7944C355.044 67.7895 351.525 66.2763 347.213 65.255C342.938 64.1957 337.775 63.6661 331.722 63.6661H273.39V70.0214H289.675ZM349.955 74.7717L349.947 74.7676C347.661 73.6246 344.653 72.825 340.869 72.4208L340.867 72.4206C337.078 72.012 332.519 71.8051 327.183 71.8051H298.268V103.532H327.183C329.268 103.532 331.467 103.551 333.777 103.589C336.066 103.588 338.316 103.478 340.528 103.257C342.749 103.001 344.832 102.584 346.778 102.008C348.685 101.417 350.344 100.54 351.773 99.3835C353.155 98.2648 354.265 96.7841 355.087 94.8993L355.092 94.8889L355.097 94.8785C355.926 93.0533 356.381 90.6536 356.381 87.6119C356.381 84.0438 355.813 81.3176 354.789 79.3349C353.778 77.3782 352.195 75.8578 349.963 74.7757L349.955 74.7717ZM347.213 103.443C345.17 104.049 342.995 104.484 340.688 104.748C338.418 104.975 336.11 105.089 333.765 105.089C331.457 105.051 329.263 105.032 327.183 105.032H296.768V70.3051H327.183C332.554 70.3051 337.169 70.5132 341.028 70.9293C344.924 71.3454 348.121 72.1777 350.618 73.426C353.114 74.6365 354.949 76.3767 356.122 78.6464C357.294 80.9161 357.881 83.9046 357.881 87.6119C357.881 90.7895 357.408 93.4186 356.462 95.4992C355.554 97.5798 354.306 99.2632 352.717 100.549C351.128 101.836 349.294 102.8 347.213 103.443ZM387.407 98.0445C388.817 94.4886 391.531 91.673 395.547 89.5979C400.124 87.2525 406.347 86.0798 414.216 86.0798C418.188 86.0798 421.857 86.4202 425.224 87.1012C428.591 87.7821 431.485 88.8602 433.906 90.3355C436.364 91.8109 438.275 93.7402 439.637 96.1234C441.036 98.4688 441.736 101.325 441.736 104.692V135.22H455.241V141.632H434.7V135.333C434.215 135.576 433.715 135.821 433.2 136.07C431.869 136.712 430.44 137.375 428.912 138.057C426.794 138.965 424.505 139.797 422.046 140.553C419.587 141.31 416.977 141.934 414.216 142.426C411.454 142.918 408.56 143.164 405.534 143.164C402.129 143.164 399.046 142.823 396.285 142.142C393.523 141.461 391.178 140.459 389.249 139.135C387.319 137.773 385.825 136.109 384.766 134.141C383.707 132.137 383.177 129.829 383.177 127.219C383.177 123.171 384.482 119.861 387.092 117.289C389.702 114.716 393.296 112.674 397.874 111.16C402.489 109.609 407.936 108.475 414.216 107.756C420.495 107.037 427.323 106.507 434.7 106.167V103.5C434.7 101.495 434.151 99.7739 433.054 98.3364C431.957 96.8989 430.482 95.7262 428.628 94.8183C426.775 93.9104 424.619 93.2484 422.16 92.8323C419.739 92.3783 417.166 92.1513 414.443 92.1513C411.265 92.1513 408.485 92.3594 406.101 92.7755C403.756 93.1538 401.77 93.7402 400.143 94.5346C398.517 95.2911 397.212 96.2369 396.228 97.3717C395.282 98.4688 394.582 99.736 394.128 101.174L386.922 99.4712C387.062 98.9831 387.223 98.5075 387.407 98.0445ZM397.362 98.3532C396.556 99.2894 395.954 100.375 395.559 101.625L395.139 102.954L385.048 100.57L385.48 99.0592C386.822 94.3603 390.016 90.7674 394.859 88.2652L394.863 88.2629C399.735 85.7667 406.224 84.5798 414.216 84.5798C418.272 84.5798 422.043 84.9274 425.521 85.6309C429.022 86.3389 432.085 87.4702 434.681 89.0516C437.344 90.6503 439.438 92.7574 440.932 95.367C442.494 97.9908 443.236 101.122 443.236 104.692V133.72H456.741V143.132H433.2V137.733C432.043 138.285 430.817 138.849 429.524 139.426L429.513 139.431L429.503 139.435C427.33 140.367 424.991 141.217 422.487 141.987C419.965 142.763 417.295 143.401 414.479 143.903C411.624 144.411 408.642 144.664 405.534 144.664C402.031 144.664 398.825 144.314 395.926 143.599C393.026 142.884 390.506 141.817 388.4 140.372L388.392 140.366L388.383 140.36C386.276 138.872 384.621 137.036 383.445 134.853L383.439 134.842C382.25 132.591 381.677 130.036 381.677 127.219C381.677 122.816 383.112 119.105 386.039 116.22C388.856 113.444 392.671 111.301 397.399 109.737C402.138 108.145 407.692 106.993 414.045 106.266C419.954 105.589 426.34 105.08 433.2 104.737V103.5C433.2 101.786 432.738 100.394 431.862 99.2464C430.925 98.0185 429.643 96.9854 427.969 96.1654C426.268 95.3325 424.255 94.7081 421.909 94.3112L421.896 94.309L421.883 94.3066C419.562 93.8714 417.083 93.6513 414.443 93.6513C411.326 93.6513 408.636 93.8557 406.359 94.2532L406.35 94.2548L406.34 94.2564C404.098 94.6181 402.262 95.1693 400.802 95.8824L400.789 95.8886L400.776 95.8946C399.305 96.5789 398.183 97.4065 397.362 98.3532ZM413.97 115.256L413.96 115.257C408.34 116.007 403.857 116.991 400.475 118.192L400.466 118.195C397.095 119.367 394.846 120.719 393.535 122.157C392.262 123.558 391.656 125.113 391.656 126.878C391.656 129.675 392.813 131.725 395.242 133.196C397.817 134.733 401.754 135.592 407.236 135.592C409.509 135.592 411.946 135.34 414.55 134.826L414.553 134.825C417.221 134.307 419.793 133.659 422.269 132.883C424.745 132.07 427.006 131.168 429.055 130.18C430.788 129.345 432.161 128.544 433.2 127.786V113.684C425.628 113.996 419.221 114.521 413.97 115.256ZM433.2 112.183C425.57 112.495 419.09 113.025 413.762 113.771C408.087 114.527 403.491 115.53 399.973 116.778C396.493 117.989 393.977 119.445 392.426 121.147C390.913 122.812 390.156 124.722 390.156 126.878C390.156 130.207 391.594 132.742 394.469 134.482C397.382 136.222 401.638 137.092 407.236 137.092C409.619 137.092 412.154 136.827 414.84 136.298C417.563 135.768 420.193 135.106 422.727 134.312C425.262 133.479 427.588 132.553 429.707 131.531C431.825 130.51 433.489 129.507 434.7 128.524V112.125C434.195 112.143 433.695 112.163 433.2 112.183ZM472.909 143.132V120.271H482.264V125.233C482.264 126.933 482.82 128.361 483.952 129.591C485.229 130.897 486.887 132.019 488.963 132.935C491.072 133.827 493.413 134.496 495.993 134.932C498.641 135.373 501.205 135.592 503.689 135.592C506.662 135.592 509.378 135.444 511.841 135.15C514.278 134.822 516.339 134.3 518.045 133.604C519.727 132.917 520.942 132.062 521.771 131.083C522.541 130.138 522.957 128.957 522.957 127.446C522.957 126.039 522.573 124.946 521.871 124.075L521.854 124.054L521.838 124.033C521.092 123.039 520.039 122.176 518.622 121.467L518.616 121.464L518.609 121.461C517.182 120.73 515.459 120.104 513.425 119.595L513.419 119.593C511.388 119.076 509.201 118.631 506.858 118.259L506.845 118.257L506.831 118.255C504.507 117.842 502.105 117.467 499.627 117.129L499.616 117.128L499.605 117.126C497.083 116.744 494.617 116.304 492.207 115.807L492.193 115.804L492.18 115.801C489.787 115.261 487.504 114.623 485.333 113.886L485.325 113.883C483.133 113.126 481.173 112.16 479.458 110.976L479.441 110.964L479.425 110.952C477.717 109.703 476.329 108.193 475.276 106.423L475.27 106.412L475.263 106.4C474.2 104.54 473.703 102.361 473.703 99.9252C473.703 96.7987 474.488 94.1026 476.179 91.964C477.776 89.9068 479.845 88.3069 482.352 87.1565C484.814 86.0264 487.57 85.2721 490.606 84.8771C493.624 84.4519 496.661 84.2393 499.717 84.2393C504.179 84.2393 508.304 84.7437 512.082 85.7668C514.797 86.5023 517.235 87.4099 519.382 88.4984V86.1119H528.737V107.326H519.382V101.627C519.382 100.699 519.141 99.9186 518.677 99.2366L518.669 99.2253L518.662 99.214C518.144 98.4224 517.429 97.7131 516.485 97.0943L516.47 97.0846L516.455 97.0745C515.48 96.4015 514.353 95.8349 513.065 95.3823L513.048 95.3764L513.031 95.3701C511.715 94.872 510.321 94.4783 508.849 94.191L508.828 94.1869L508.807 94.1822C507.354 93.8554 505.884 93.6193 504.394 93.474L504.391 93.4737C502.92 93.3266 501.552 93.2541 500.284 93.2541C494.367 93.2541 490.067 93.8399 487.261 94.913C485.959 95.4183 485.091 96.0867 484.542 96.8624C483.996 97.6336 483.683 98.6259 483.683 99.9252C483.683 101.054 484.016 101.932 484.647 102.652C485.43 103.46 486.5 104.202 487.901 104.854C489.386 105.488 491.124 106.046 493.124 106.519C495.214 106.967 497.419 107.397 499.738 107.809C502.118 108.186 504.554 108.583 507.045 108.998C509.582 109.383 512.045 109.883 514.434 110.499C516.875 111.081 519.172 111.8 521.321 112.66C523.553 113.537 525.517 114.645 527.198 115.995C528.948 117.331 530.333 118.968 531.341 120.896C532.425 122.894 532.936 125.208 532.936 127.786C532.936 130.059 532.502 132.117 531.58 133.917C530.699 135.637 529.523 137.147 528.061 138.442L528.052 138.45L528.043 138.458C526.598 139.697 524.938 140.719 523.075 141.529C521.283 142.325 519.396 142.941 517.416 143.377C515.463 143.845 513.489 144.177 511.495 144.373C509.524 144.566 507.659 144.664 505.902 144.664C500.126 144.664 495.043 144.048 490.676 142.789L490.673 142.788C487.493 141.863 484.685 140.724 482.264 139.358V143.132H472.909ZM480.764 136.638C481.242 136.977 481.742 137.304 482.264 137.62C484.718 139.107 487.661 140.35 491.092 141.348C495.291 142.558 500.227 143.164 505.902 143.164C507.604 143.164 509.42 143.069 511.349 142.88C513.278 142.691 515.189 142.369 517.08 141.915C518.972 141.499 520.768 140.913 522.471 140.156C524.211 139.4 525.743 138.454 527.067 137.319C528.391 136.146 529.45 134.785 530.245 133.234C531.039 131.683 531.436 129.867 531.436 127.786C531.436 125.403 530.963 123.341 530.018 121.601C529.11 119.861 527.861 118.386 526.273 117.175C524.722 115.927 522.887 114.887 520.768 114.054C518.688 113.222 516.456 112.522 514.073 111.955C511.727 111.35 509.306 110.858 506.81 110.479C504.313 110.063 501.873 109.666 499.49 109.288C497.144 108.872 494.912 108.437 492.794 107.983C490.713 107.491 488.879 106.905 487.29 106.224C485.739 105.505 484.49 104.654 483.545 103.67C482.637 102.649 482.183 101.401 482.183 99.9252C482.183 96.8232 483.696 94.6859 486.722 93.5132C489.787 92.3405 494.307 91.7541 500.284 91.7541C501.608 91.7541 503.027 91.8298 504.54 91.9811C506.091 92.1324 507.623 92.3783 509.136 92.7188C510.687 93.0214 512.162 93.4375 513.562 93.9671C514.962 94.4589 516.21 95.0831 517.307 95.8397C518.404 96.5584 519.274 97.4096 519.917 98.3931C520.56 99.3388 520.882 100.417 520.882 101.627V105.826H527.237V87.6119H520.882V91.0732C520.403 90.7683 519.903 90.4746 519.382 90.192C517.188 89.0019 514.624 88.0095 511.689 87.2147C508.058 86.2311 504.067 85.7393 499.717 85.7393C496.728 85.7393 493.759 85.9474 490.808 86.3635C487.895 86.7418 485.285 87.4605 482.977 88.5198C480.67 89.579 478.797 91.0354 477.36 92.889C475.922 94.7048 475.203 97.0502 475.203 99.9252C475.203 102.157 475.657 104.067 476.565 105.656C477.511 107.245 478.759 108.607 480.31 109.742C481.899 110.839 483.734 111.747 485.814 112.465C487.933 113.184 490.165 113.808 492.51 114.338C494.893 114.83 497.333 115.265 499.83 115.643C502.327 115.984 504.748 116.362 507.093 116.778C509.476 117.156 511.708 117.61 513.789 118.14C515.907 118.669 517.742 119.331 519.293 120.126C520.882 120.92 522.13 121.923 523.038 123.133C523.984 124.306 524.457 125.743 524.457 127.446C524.457 129.262 523.946 130.794 522.925 132.042C521.903 133.252 520.466 134.236 518.612 134.993C516.759 135.749 514.564 136.298 512.03 136.638C509.495 136.941 506.715 137.092 503.689 137.092C501.116 137.092 498.468 136.865 495.745 136.411C493.059 135.957 490.6 135.257 488.368 134.312C486.136 133.328 484.301 132.099 482.864 130.623C481.464 129.11 480.764 127.313 480.764 125.233V121.771H474.409V141.632H480.764V136.638ZM551.601 143.132V120.271H560.956V125.233C560.956 126.933 561.512 128.361 562.644 129.591C563.921 130.897 565.579 132.019 567.654 132.935C569.763 133.827 572.104 134.496 574.684 134.932C577.332 135.373 579.897 135.592 582.38 135.592C585.353 135.592 588.07 135.444 590.533 135.15C592.97 134.822 595.031 134.3 596.737 133.604C598.419 132.917 599.633 132.063 600.462 131.084C601.232 130.139 601.648 128.957 601.648 127.446C601.648 126.039 601.265 124.946 600.562 124.075L600.546 124.054L600.53 124.033C599.784 123.039 598.731 122.176 597.314 121.467L597.308 121.464L597.301 121.461C595.874 120.73 594.151 120.104 592.117 119.595L592.111 119.593C590.08 119.076 587.893 118.631 585.55 118.259L585.536 118.257L585.523 118.255C583.198 117.842 580.797 117.467 578.319 117.129L578.308 117.128L578.297 117.126C575.775 116.744 573.309 116.304 570.899 115.807L570.885 115.804L570.872 115.801C568.479 115.261 566.196 114.623 564.024 113.886L564.016 113.883C561.825 113.126 559.865 112.16 558.15 110.976L558.133 110.964L558.116 110.952C556.409 109.703 555.021 108.193 553.968 106.423L553.961 106.412L553.955 106.4C552.892 104.54 552.395 102.361 552.395 99.9252C552.395 96.7992 553.18 94.1035 554.87 91.965C556.467 89.9073 558.537 88.3071 561.043 87.1565C563.505 86.0264 566.262 85.2721 569.298 84.8771C572.316 84.4519 575.353 84.2393 578.408 84.2393C582.871 84.2393 586.996 84.7437 590.773 85.7668C593.489 86.5023 595.926 87.4099 598.074 88.4984V86.1119H607.429V107.326H598.074V101.627C598.074 100.699 597.832 99.9186 597.369 99.2366L597.361 99.2253L597.354 99.214C596.836 98.4224 596.121 97.7131 595.177 97.0943L595.162 97.0846L595.147 97.0745C594.171 96.4015 593.045 95.8349 591.757 95.3823L591.74 95.3764L591.723 95.3701C590.407 94.872 589.013 94.4783 587.541 94.191L587.519 94.1869L587.499 94.1822C586.046 93.8554 584.575 93.6193 583.086 93.474L583.082 93.4737C581.612 93.3266 580.243 93.2541 578.976 93.2541C573.059 93.2541 568.759 93.8399 565.953 94.913C564.65 95.4183 563.783 96.0867 563.234 96.8624C562.688 97.6336 562.375 98.6259 562.375 99.9252C562.375 101.054 562.708 101.932 563.339 102.653C564.122 103.46 565.192 104.202 566.592 104.853C568.077 105.488 569.815 106.046 571.815 106.519C573.906 106.967 576.111 107.397 578.43 107.809C580.81 108.186 583.245 108.583 585.737 108.998C588.274 109.383 590.736 109.883 593.126 110.499C595.567 111.081 597.864 111.8 600.013 112.66C602.245 113.537 604.209 114.645 605.89 115.995C607.639 117.331 609.025 118.968 610.033 120.896C611.116 122.894 611.628 125.208 611.628 127.786C611.628 130.059 611.193 132.117 610.271 133.917C609.391 135.637 608.215 137.147 606.753 138.442L606.744 138.45L606.735 138.458C605.29 139.697 603.63 140.718 601.768 141.529C599.975 142.325 598.088 142.941 596.108 143.377C594.154 143.845 592.181 144.177 590.187 144.373C588.216 144.566 586.351 144.664 584.593 144.664C578.818 144.664 573.735 144.048 569.368 142.789L569.364 142.788C566.185 141.863 563.377 140.724 560.956 139.358V143.132H551.601ZM559.456 136.638C559.934 136.977 560.434 137.304 560.956 137.62C563.41 139.107 566.352 140.35 569.783 141.348C573.982 142.558 578.919 143.164 584.593 143.164C586.296 143.164 588.111 143.069 590.041 142.88C591.97 142.691 593.88 142.369 595.772 141.915C597.663 141.499 599.46 140.913 601.162 140.156C602.903 139.4 604.435 138.454 605.759 137.319C607.083 136.146 608.142 134.785 608.936 133.234C609.731 131.683 610.128 129.867 610.128 127.786C610.128 125.403 609.655 123.341 608.709 121.601C607.801 119.861 606.553 118.386 604.964 117.175C603.413 115.927 601.579 114.887 599.46 114.054C597.38 113.222 595.148 112.522 592.764 111.955C590.419 111.35 587.998 110.858 585.501 110.479C583.005 110.063 580.565 109.666 578.181 109.288C575.836 108.872 573.604 108.437 571.486 107.983C569.405 107.491 567.57 106.905 565.982 106.224C564.431 105.505 563.182 104.654 562.237 103.67C561.329 102.649 560.875 101.401 560.875 99.9252C560.875 96.8232 562.388 94.6859 565.414 93.5132C568.478 92.3405 572.999 91.7541 578.976 91.7541C580.3 91.7541 581.718 91.8298 583.232 91.9811C584.783 92.1324 586.315 92.3783 587.828 92.7188C589.379 93.0214 590.854 93.4375 592.254 93.9671C593.653 94.4589 594.902 95.0831 595.999 95.8397C597.096 96.5584 597.966 97.4096 598.609 98.3931C599.252 99.3388 599.574 100.417 599.574 101.627V105.826H605.929V87.6119H599.574V91.0732C599.095 90.7683 598.595 90.4746 598.074 90.192C595.88 89.0019 593.316 88.0095 590.381 87.2147C586.75 86.2311 582.759 85.7393 578.408 85.7393C575.42 85.7393 572.45 85.9474 569.5 86.3635C566.587 86.7418 563.977 87.4605 561.669 88.5198C559.362 89.579 557.489 91.0354 556.051 92.889C554.614 94.7048 553.895 97.0502 553.895 99.9252C553.895 102.157 554.349 104.067 555.257 105.656C556.203 107.245 557.451 108.607 559.002 109.742C560.591 110.839 562.426 111.747 564.506 112.465C566.625 113.184 568.857 113.808 571.202 114.338C573.585 114.83 576.025 115.265 578.522 115.643C581.019 115.984 583.44 116.362 585.785 116.778C588.168 117.156 590.4 117.61 592.481 118.14C594.599 118.669 596.434 119.331 597.985 120.126C599.574 120.92 600.822 121.923 601.73 123.133C602.676 124.306 603.148 125.743 603.148 127.446C603.148 129.262 602.638 130.794 601.616 132.042C600.595 133.252 599.158 134.236 597.304 134.993C595.45 135.749 593.256 136.298 590.722 136.638C588.187 136.941 585.407 137.092 582.38 137.092C579.808 137.092 577.16 136.865 574.436 136.411C571.75 135.957 569.292 135.257 567.06 134.312C564.828 133.328 562.993 132.099 561.556 130.623C560.156 129.11 559.456 127.313 559.456 125.233V121.771H553.101V141.632H559.456V136.638ZM627.796 86.1119H650.656V94.5091C651.8 93.5829 653.009 92.702 654.285 91.8661C656.556 90.3395 658.999 89.0115 661.611 87.8808C664.236 86.7448 666.993 85.865 669.881 85.2399C672.791 84.5722 675.776 84.2393 678.833 84.2393C682.47 84.2393 685.703 84.7073 688.506 85.6801C691.321 86.6066 693.71 87.9543 695.632 89.7504C697.55 91.5435 698.981 93.7283 699.928 96.2796C700.87 98.7806 701.328 101.554 701.328 104.578V133.72H714.152V143.132H678.468V133.72H691.235V106.678C691.235 103.919 690.87 101.765 690.211 100.152L690.204 100.135L690.198 100.118C689.559 98.4354 688.662 97.1754 687.538 96.2701C686.386 95.3418 684.946 94.6744 683.175 94.2998L683.159 94.2963L683.142 94.2924C681.347 93.87 679.29 93.6513 676.96 93.6513C674.258 93.6513 671.613 94.0114 669.021 94.7315C666.374 95.4666 663.882 96.3833 661.542 97.48C659.227 98.5828 657.084 99.8108 655.111 101.163L655.106 101.166C653.379 102.339 651.898 103.458 650.656 104.522V133.72H663.48V143.132H627.796V133.72H640.563V95.4671H627.796V86.1119ZM642.063 93.9671V135.22H629.296V141.632H661.98V135.22H649.156V103.84C650.556 102.592 652.258 101.287 654.263 99.9252C656.306 98.5255 658.519 97.2582 660.902 96.1234C663.323 94.9885 665.895 94.0428 668.619 93.2862C671.343 92.5296 674.123 92.1513 676.96 92.1513C679.381 92.1513 681.557 92.3783 683.486 92.8323C685.453 93.2484 687.117 94.005 688.479 95.102C689.841 96.199 690.881 97.6933 691.6 99.5847C692.357 101.438 692.735 103.803 692.735 106.678V135.22H679.968V141.632H712.652V135.22H699.828V104.578C699.828 101.703 699.393 99.1119 698.523 96.8043C697.653 94.4589 696.348 92.4729 694.608 90.8462C692.867 89.2196 690.673 87.9712 688.025 87.1012C685.415 86.1933 682.351 85.7393 678.833 85.7393C675.882 85.7393 673.007 86.0609 670.208 86.704C667.409 87.3092 664.742 88.1604 662.207 89.2574C659.673 90.3545 657.308 91.6406 655.114 93.116C653.518 94.1617 652.032 95.2775 650.656 96.4634C650.141 96.9076 649.641 97.3617 649.156 97.8257V87.6119H629.296V93.9671H642.063ZM727.256 86.1119H750.116V133.72H762.94V143.132H727.256V133.72H740.023V95.4671H727.256V86.1119ZM741.523 93.9671V135.22H728.756V141.632H761.44V135.22H748.616V87.6119H728.756V93.9671H741.523ZM737.016 69.4473L737.023 69.4305C737.433 68.4743 737.991 67.6304 738.703 66.918C739.404 66.2177 740.218 65.6614 741.134 65.2489C742.094 64.8171 743.118 64.6061 744.19 64.6061C745.257 64.6061 746.277 64.8153 747.233 65.2432C748.177 65.6493 749.011 66.1997 749.716 66.9011C750.467 67.6097 751.05 68.4543 751.465 69.4182C751.893 70.3742 752.102 71.3942 752.102 72.4614C752.102 73.5332 751.891 74.5665 751.47 75.549L751.465 75.5613L751.459 75.5736C751.041 76.5034 750.458 77.3225 749.716 78.0217C749.007 78.7261 748.169 79.2781 747.221 79.6847L747.204 79.6919L747.187 79.6987C746.242 80.0769 745.238 80.2599 744.19 80.2599C743.142 80.2599 742.138 80.0769 741.193 79.6987L741.163 79.6869L741.134 79.6738C740.218 79.2613 739.404 78.7051 738.703 78.0048C738.003 77.3044 737.447 76.4903 737.034 75.5736L737.016 75.5333L737 75.4921C736.631 74.5231 736.448 73.5096 736.448 72.4614C736.448 71.4135 736.631 70.4098 737.009 69.4643L737.016 69.4473ZM748.673 76.9441C749.278 76.3767 749.751 75.7147 750.091 74.9581C750.432 74.1637 750.602 73.3314 750.602 72.4614C750.602 71.5913 750.432 70.778 750.091 70.0214C749.751 69.227 749.278 68.5461 748.673 67.9786C748.105 67.4112 747.424 66.9573 746.63 66.6168C745.873 66.2763 745.06 66.1061 744.19 66.1061C743.32 66.1061 742.507 66.2763 741.75 66.6168C740.993 66.9573 740.331 67.4112 739.764 67.9786C739.197 68.5461 738.743 69.227 738.402 70.0214C738.099 70.778 737.948 71.5913 737.948 72.4614C737.948 73.3314 738.099 74.1637 738.402 74.9581C738.743 75.7147 739.197 76.3767 739.764 76.9441C740.331 77.5115 740.993 77.9655 741.75 78.3059C742.507 78.6086 743.32 78.7599 744.19 78.7599C745.06 78.7599 745.873 78.6086 746.63 78.3059C747.424 77.9655 748.105 77.5115 748.673 76.9441ZM774.966 86.1119H797.826V92.4328C798.895 91.6548 799.988 90.9257 801.108 90.2454C803.123 89.0202 805.273 87.9947 807.556 87.1678C809.881 86.3016 812.336 85.6548 814.918 85.2244L814.922 85.2238C817.547 84.7927 820.372 84.5798 823.392 84.5798C827.507 84.5798 831.493 85.1676 835.344 86.3457C839.229 87.4963 842.696 89.3067 845.729 91.78C848.792 94.2403 851.233 97.3931 853.06 101.206C854.918 105.046 855.818 109.552 855.818 114.678C855.818 119.82 854.856 124.341 852.87 128.19L852.867 128.196C850.914 131.943 848.293 135.067 845.008 137.551L844.999 137.558C841.737 139.984 837.993 141.782 833.784 142.962L833.772 142.966C829.59 144.099 825.24 144.664 820.725 144.664C818.124 144.664 815.647 144.489 813.297 144.136C810.971 143.788 808.755 143.321 806.649 142.736L806.633 142.732L806.617 142.727C804.566 142.108 802.608 141.41 800.742 140.633L800.725 140.626L800.707 140.618C799.714 140.174 798.753 139.718 797.826 139.249V156.076H810.593V165.432H774.966V156.076H787.733V95.4671H774.966V86.1119ZM789.233 93.9671V157.576H776.466V163.932H809.093V157.576H796.326V136.752C796.815 137.026 797.315 137.296 797.826 137.563C798.937 138.142 800.102 138.704 801.319 139.248C803.135 140.005 805.045 140.686 807.05 141.291C809.093 141.859 811.249 142.313 813.519 142.653C815.789 142.993 818.191 143.164 820.725 143.164C825.114 143.164 829.332 142.615 833.379 141.518C837.427 140.383 841.002 138.662 844.104 136.354C847.206 134.009 849.684 131.058 851.537 127.502C853.391 123.909 854.318 119.634 854.318 114.678C854.318 109.723 853.447 105.448 851.707 101.854C849.967 98.2229 847.66 95.2533 844.785 92.9457C841.91 90.6003 838.619 88.8791 834.911 87.7821C831.204 86.6472 827.364 86.0798 823.392 86.0798C820.442 86.0798 817.699 86.2878 815.165 86.704C812.668 87.1201 810.304 87.7443 808.072 88.5765C805.878 89.3709 803.816 90.3545 801.887 91.5272C800.494 92.3739 799.14 93.2996 797.826 94.3041C797.32 94.6908 796.82 95.0892 796.326 95.4992V87.6119H776.466V93.9671H789.233ZM814.169 94.5706L814.161 94.5725C811.795 95.155 809.584 95.9352 807.525 96.9104C805.48 97.8969 803.607 98.9883 801.905 100.183C800.411 101.255 799.052 102.322 797.826 103.384V129.643C800.356 131.251 803.404 132.638 806.989 133.788C810.86 134.981 815.394 135.592 820.612 135.592C824.385 135.592 827.815 135.135 830.912 134.235C834.04 133.299 836.677 131.946 838.85 130.193C841.059 128.404 842.772 126.236 844 123.676C845.211 121.111 845.838 118.123 845.838 114.678C845.838 107.603 843.781 102.466 839.875 99.0052C835.94 95.5191 829.983 93.6513 821.747 93.6513C819.063 93.6513 816.541 93.9595 814.177 94.5686L814.169 94.5706ZM845.352 124.325C844.028 127.086 842.175 129.432 839.791 131.361C837.446 133.252 834.628 134.69 831.337 135.674C828.083 136.619 824.508 137.092 820.612 137.092C815.278 137.092 810.587 136.468 806.54 135.22C802.53 133.933 799.125 132.345 796.326 130.453V102.706C797.725 101.457 799.295 100.209 801.035 98.9605C802.813 97.7122 804.762 96.5773 806.88 95.5559C809.036 94.5346 811.344 93.7212 813.803 93.116C816.299 92.4729 818.948 92.1513 821.747 92.1513C830.183 92.1513 836.557 94.0617 840.869 97.8824C845.182 101.703 847.338 107.302 847.338 114.678C847.338 118.31 846.676 121.526 845.352 124.325Z" fill="white"/>
</svg>
