<svg width="457" height="465" viewBox="0 0 457 465" fill="none" xmlns="http://www.w3.org/2000/svg">
<g opacity="0.6" filter="url(#filter0_f)">
<ellipse cx="228.5" cy="232.5" rx="128.5" ry="132.5" fill="#F5DB95"/>
</g>
<path d="M254.2 289V156.93L258 134.289H200.238C197.958 106.366 192.942 69.2349 191.118 144.1C189.294 218.965 209.105 238.184 219.239 238.436L216.199 285.981L254.2 289Z" fill="#FBF3DC"/>
<path fill-rule="evenodd" clip-rule="evenodd" d="M263 250.159V269C263 272.866 251.807 276 238 276C224.193 276 213 272.866 213 269V249.857C172.006 259.672 141.772 293.647 141.772 334.052C141.772 334.147 141.772 334.242 141.773 334.337H141.914L141.914 334.437C141.914 347.047 152.137 357.27 164.747 357.27L293.476 357.27L293.487 357.17H310.101L310.167 357.17C322.777 357.17 333 346.947 333 334.337L333 334.237L333 334.052C333 294.052 303.368 260.353 263 250.159Z" fill="black"/>
<mask id="path-4-inside-1" fill="white">
<path fill-rule="evenodd" clip-rule="evenodd" d="M213 238.649C196.172 232.32 188 207.584 188 180.732C188 149.569 190.066 118.207 212.834 118.207C232.246 118.207 255.024 143.222 261.317 169.91C262.457 169.323 263.699 169 265 169C270.523 169 275 174.82 275 182C275 189.18 270.523 195 265 195C264.315 195 263.646 194.91 263 194.74V269.207C263 273.073 251.807 276.207 238 276.207C224.193 276.207 213 273.073 213 269.207V238.649Z"/>
</mask>
<path d="M213 238.649L213.352 237.713L214 237.957V238.649H213ZM261.317 169.91L261.775 170.799L260.637 171.385L260.343 170.14L261.317 169.91ZM263 194.74H262V193.442L263.255 193.773L263 194.74ZM189 180.732C189 194.068 191.031 206.832 195.118 217.014C199.21 227.21 205.304 234.686 213.352 237.713L212.648 239.585C203.868 236.283 197.463 228.227 193.262 217.759C189.055 207.278 187 194.248 187 180.732H189ZM212.834 119.207C207.402 119.207 203.262 121.066 200.059 124.298C196.828 127.559 194.498 132.275 192.841 138.059C189.522 149.641 189 165.137 189 180.732H187C187 165.164 187.511 149.398 190.918 137.508C192.623 131.556 195.079 126.483 198.638 122.89C202.227 119.269 206.883 117.207 212.834 117.207V119.207ZM260.343 170.14C257.239 156.976 250.06 144.203 241.262 134.731C232.438 125.231 222.138 119.207 212.834 119.207V117.207C222.943 117.207 233.737 123.691 242.728 133.37C251.745 143.078 259.101 156.156 262.29 169.681L260.343 170.14ZM265 170C263.869 170 262.782 170.28 261.775 170.799L260.859 169.021C262.131 168.366 263.53 168 265 168V170ZM274 182C274 178.612 272.942 175.581 271.278 173.417C269.615 171.255 267.387 170 265 170V168C268.136 168 270.908 169.655 272.864 172.198C274.819 174.74 276 178.209 276 182H274ZM265 194C267.387 194 269.615 192.745 271.278 190.583C272.942 188.419 274 185.388 274 182H276C276 185.791 274.819 189.26 272.864 191.802C270.908 194.345 268.136 196 265 196V194ZM263.255 193.773C263.82 193.922 264.403 194 265 194V196C264.227 196 263.473 195.899 262.745 195.707L263.255 193.773ZM262 269.207V194.74H264V269.207H262ZM238 275.207C244.839 275.207 250.994 274.43 255.408 273.194C257.622 272.574 259.341 271.854 260.483 271.098C261.665 270.316 262 269.656 262 269.207H264C264 270.691 262.936 271.873 261.587 272.766C260.2 273.684 258.258 274.473 255.947 275.12C251.313 276.417 244.968 277.207 238 277.207V275.207ZM214 269.207C214 269.656 214.335 270.316 215.517 271.098C216.659 271.854 218.378 272.574 220.592 273.194C225.006 274.43 231.161 275.207 238 275.207V277.207C231.032 277.207 224.687 276.417 220.053 275.12C217.742 274.473 215.8 273.684 214.413 272.766C213.064 271.873 212 270.691 212 269.207H214ZM214 238.649V269.207H212V238.649H214Z" fill="black" mask="url(#path-4-inside-1)"/>
<path d="M237.5 233.707C231.097 237.452 220.837 239.267 213 237.707V261.207C226.173 250.978 243.903 229.962 237.5 233.707Z" fill="black"/>
<path d="M225.5 170.195C228 168.695 234.6 166.595 241 170.195" stroke="black"/>
<path d="M195.5 170.195C198 168.695 204.6 166.595 211 170.195" stroke="black"/>
<path d="M217 211.964C219 208.631 225.2 202.364 234 203.964" stroke="black"/>
<ellipse rx="2.5" ry="5" transform="matrix(-1 0 0 1 231.5 173.207)" fill="black"/>
<ellipse rx="2.5" ry="5" transform="matrix(-1 0 0 1 202.5 173.207)" fill="black"/>
<path d="M218 183.707L214 198.707H224" stroke="black"/>
<path fill-rule="evenodd" clip-rule="evenodd" d="M251.347 146.207L253.847 177.707H256.723C258.152 173.182 261.544 170 265.5 170C267.346 170 269.068 170.693 270.526 171.891C272.642 166.17 275.501 156.226 278.347 140.707C282.456 118.291 266.24 113.904 255.934 114.509C259.261 117.9 262.455 121.414 263.852 123.683C264.141 124.153 263.994 124.769 263.524 125.059C263.054 125.348 262.438 125.201 262.148 124.731C260.623 122.252 256.55 117.911 252.533 113.926C250.524 111.933 248.564 110.063 247.001 108.605C237.397 101.141 226.169 96.0697 220.847 94.2069C184.374 81.681 179.599 108.629 182.067 127.157C182.099 127.325 182.131 127.493 182.163 127.663L182.164 127.665C182.236 128.049 182.31 128.44 182.39 128.847C182.786 130.88 183.333 133.399 184.575 137.724C184.727 138.255 184.421 138.809 183.89 138.961C183.359 139.114 182.805 138.807 182.653 138.276C182.149 136.52 181.757 135.055 181.441 133.794C174.629 146.17 182.657 172.564 188 181.207C188.653 165.707 190.667 150.54 193 146.207C204.015 154.124 229.16 149.896 244.669 147.288C247.181 146.866 249.441 146.486 251.347 146.207Z" fill="black"/>
<path fill-rule="evenodd" clip-rule="evenodd" d="M86 31C74.9543 31 66 39.9543 66 51V60C66 71.0457 74.9543 80 86 80H191C202.046 80 211 71.0457 211 60V51C211 39.9543 202.046 31 191 31H86ZM156 102C156 106.971 151.971 111 147 111C142.029 111 138 106.971 138 102C138 97.0294 142.029 93 147 93C151.971 93 156 97.0294 156 102ZM164 130.5C164 133.538 161.538 136 158.5 136C155.462 136 153 133.538 153 130.5C153 127.462 155.462 125 158.5 125C161.538 125 164 127.462 164 130.5Z" fill="black"/>
<path fill-rule="evenodd" clip-rule="evenodd" d="M384 55C395.046 55 404 63.9543 404 75V84C404 95.0457 395.046 104 384 104H288C276.954 104 268 95.0457 268 84V75C268 63.9543 276.954 55 288 55H384ZM314 126C314 130.971 318.029 135 323 135C327.971 135 332 130.971 332 126C332 121.029 327.971 117 323 117C318.029 117 314 121.029 314 126ZM306 154.5C306 157.538 308.462 160 311.5 160C314.538 160 317 157.538 317 154.5C317 151.462 314.538 149 311.5 149C308.462 149 306 151.462 306 154.5Z" fill="black"/>
<path d="M88.7258 50.684C89.0298 50.612 89.3578 50.564 89.7098 50.54C90.0618 50.516 90.4098 50.504 90.7538 50.504C91.1218 50.504 91.4938 50.54 91.8698 50.612C92.2538 50.684 92.6018 50.816 92.9138 51.008C93.2258 51.2 93.4778 51.464 93.6698 51.8C93.8698 52.136 93.9698 52.564 93.9698 53.084C93.9698 53.596 93.8778 54.028 93.6938 54.38C93.5098 54.732 93.2658 55.02 92.9618 55.244C92.6578 55.46 92.3098 55.616 91.9178 55.712C91.5258 55.808 91.1218 55.856 90.7058 55.856C90.6658 55.856 90.5978 55.856 90.5018 55.856C90.4138 55.856 90.3178 55.856 90.2138 55.856C90.1178 55.848 90.0218 55.84 89.9258 55.832C89.8298 55.824 89.7618 55.816 89.7218 55.808V59H88.7258V50.684ZM90.7778 51.368C90.5698 51.368 90.3698 51.372 90.1778 51.38C89.9858 51.388 89.8338 51.408 89.7218 51.44V54.92C89.7618 54.936 89.8258 54.948 89.9138 54.956C90.0018 54.956 90.0938 54.96 90.1898 54.968C90.2858 54.968 90.3778 54.968 90.4658 54.968C90.5538 54.968 90.6178 54.968 90.6578 54.968C90.9298 54.968 91.1978 54.944 91.4618 54.896C91.7338 54.84 91.9778 54.744 92.1938 54.608C92.4098 54.472 92.5818 54.28 92.7098 54.032C92.8458 53.784 92.9138 53.468 92.9138 53.084C92.9138 52.756 92.8498 52.484 92.7218 52.268C92.6018 52.044 92.4378 51.868 92.2298 51.74C92.0298 51.604 91.8018 51.508 91.5458 51.452C91.2898 51.396 91.0338 51.368 90.7778 51.368Z" fill="white"/>
<path d="M103.361 56.384H101.741V59H100.805V56.384H96.9291V55.688L100.949 50.6H101.741V55.592H103.361V56.384ZM100.805 52.1L98.0331 55.592H100.805V52.1Z" fill="white"/>
<path d="M108.432 59.144C107.992 59.136 107.6 59.096 107.256 59.024C106.92 58.96 106.648 58.872 106.44 58.76L106.764 57.884C106.924 57.98 107.14 58.068 107.412 58.148C107.692 58.22 108.032 58.264 108.432 58.28V55.04C108.192 54.92 107.952 54.792 107.712 54.656C107.48 54.52 107.272 54.36 107.088 54.176C106.904 53.984 106.756 53.76 106.644 53.504C106.532 53.248 106.476 52.944 106.476 52.592C106.476 52.016 106.636 51.544 106.956 51.176C107.284 50.808 107.776 50.58 108.432 50.492V49.4H109.248V50.456C109.656 50.472 109.988 50.512 110.244 50.576C110.508 50.632 110.744 50.708 110.952 50.804L110.664 51.644C110.504 51.564 110.312 51.496 110.088 51.44C109.864 51.376 109.584 51.336 109.248 51.32V54.284C109.496 54.412 109.744 54.552 109.992 54.704C110.24 54.848 110.46 55.016 110.652 55.208C110.852 55.4 111.012 55.624 111.132 55.88C111.252 56.136 111.312 56.436 111.312 56.78C111.312 57.404 111.136 57.92 110.784 58.328C110.44 58.728 109.928 58.984 109.248 59.096V60.2H108.432V59.144ZM110.316 56.864C110.316 56.672 110.28 56.5 110.208 56.348C110.144 56.196 110.056 56.06 109.944 55.94C109.832 55.82 109.7 55.712 109.548 55.616C109.396 55.52 109.232 55.428 109.056 55.34V58.256C109.424 58.192 109.724 58.048 109.956 57.824C110.196 57.6 110.316 57.28 110.316 56.864ZM107.472 52.532C107.472 52.876 107.58 53.156 107.796 53.372C108.02 53.588 108.296 53.784 108.624 53.96V51.332C108.2 51.38 107.9 51.52 107.724 51.752C107.556 51.984 107.472 52.244 107.472 52.532Z" fill="white"/>
<path d="M119.408 57.38C119.408 57.124 119.308 56.928 119.108 56.792C118.908 56.648 118.66 56.536 118.364 56.456C118.068 56.368 117.744 56.288 117.392 56.216C117.048 56.144 116.728 56.048 116.432 55.928C116.136 55.808 115.888 55.648 115.688 55.448C115.488 55.24 115.388 54.952 115.388 54.584C115.388 54.28 115.452 54.02 115.58 53.804C115.716 53.588 115.892 53.412 116.108 53.276C116.324 53.132 116.576 53.028 116.864 52.964C117.152 52.892 117.452 52.856 117.764 52.856C118.324 52.856 118.804 52.928 119.204 53.072C119.612 53.208 119.936 53.352 120.176 53.504L119.792 54.26C119.528 54.116 119.24 53.98 118.928 53.852C118.624 53.716 118.24 53.648 117.776 53.648C117.6 53.648 117.424 53.668 117.248 53.708C117.08 53.74 116.924 53.792 116.78 53.864C116.644 53.936 116.532 54.032 116.444 54.152C116.364 54.264 116.324 54.404 116.324 54.572C116.324 54.78 116.424 54.94 116.624 55.052C116.824 55.164 117.072 55.26 117.368 55.34C117.664 55.412 117.984 55.484 118.328 55.556C118.68 55.62 119.004 55.716 119.3 55.844C119.596 55.972 119.844 56.144 120.044 56.36C120.244 56.576 120.344 56.868 120.344 57.236C120.344 57.788 120.124 58.244 119.684 58.604C119.252 58.964 118.6 59.144 117.728 59.144C117.464 59.144 117.204 59.12 116.948 59.072C116.692 59.024 116.452 58.96 116.228 58.88C116.004 58.8 115.8 58.712 115.616 58.616C115.432 58.512 115.28 58.408 115.16 58.304L115.64 57.524C115.736 57.62 115.864 57.72 116.024 57.824C116.184 57.92 116.36 58.008 116.552 58.088C116.744 58.168 116.948 58.232 117.164 58.28C117.388 58.328 117.612 58.352 117.836 58.352C118.052 58.352 118.252 58.336 118.436 58.304C118.628 58.264 118.796 58.208 118.94 58.136C119.084 58.056 119.196 57.956 119.276 57.836C119.364 57.708 119.408 57.556 119.408 57.38Z" fill="white"/>
<path d="M127.095 54.32L128.295 57.656H128.379L129.231 53H130.107L128.931 59H127.863L126.711 55.688H126.675L125.475 59H124.407L123.147 53H124.071L125.043 57.68H125.115L126.279 54.32H127.095Z" fill="white"/>
<path d="M132.562 54.8C132.562 54.12 132.622 53.512 132.742 52.976C132.862 52.432 133.042 51.976 133.282 51.608C133.522 51.232 133.826 50.948 134.194 50.756C134.562 50.556 134.998 50.456 135.502 50.456C136.038 50.456 136.49 50.552 136.858 50.744C137.234 50.936 137.538 51.216 137.77 51.584C138.002 51.952 138.17 52.408 138.274 52.952C138.378 53.488 138.43 54.104 138.43 54.8C138.43 55.48 138.37 56.092 138.25 56.636C138.13 57.172 137.95 57.628 137.71 58.004C137.47 58.372 137.166 58.656 136.798 58.856C136.43 59.048 135.994 59.144 135.49 59.144C134.962 59.144 134.51 59.04 134.134 58.832C133.766 58.616 133.462 58.316 133.222 57.932C132.99 57.548 132.822 57.092 132.718 56.564C132.614 56.028 132.562 55.44 132.562 54.8ZM137.446 54.8C137.446 54.376 137.422 53.972 137.374 53.588L133.81 56.84C133.946 57.296 134.15 57.66 134.422 57.932C134.694 58.204 135.05 58.34 135.49 58.34C136.194 58.34 136.694 58.048 136.99 57.464C137.294 56.88 137.446 55.992 137.446 54.8ZM133.558 54.8C133.558 55 133.562 55.192 133.57 55.376C133.586 55.56 133.602 55.74 133.618 55.916L137.194 52.676C137.058 52.244 136.854 51.9 136.582 51.644C136.318 51.388 135.958 51.26 135.502 51.26C134.79 51.26 134.286 51.556 133.99 52.148C133.702 52.732 133.558 53.616 133.558 54.8Z" fill="white"/>
<path d="M141.978 50.684C142.282 50.628 142.63 50.584 143.022 50.552C143.422 50.52 143.786 50.504 144.114 50.504C144.482 50.504 144.83 50.544 145.158 50.624C145.494 50.704 145.786 50.836 146.034 51.02C146.29 51.204 146.494 51.444 146.646 51.74C146.798 52.036 146.874 52.396 146.874 52.82C146.874 53.148 146.818 53.44 146.706 53.696C146.602 53.944 146.47 54.16 146.31 54.344C146.158 54.52 145.998 54.664 145.83 54.776C145.662 54.888 145.518 54.968 145.398 55.016L147.618 59H146.454L144.474 55.304H142.974V59H141.978V50.684ZM144.138 51.368C144.034 51.368 143.926 51.368 143.814 51.368C143.702 51.368 143.594 51.372 143.49 51.38C143.386 51.388 143.286 51.396 143.19 51.404C143.102 51.412 143.03 51.424 142.974 51.44V54.536H143.91C144.462 54.536 144.918 54.4 145.278 54.128C145.638 53.856 145.818 53.432 145.818 52.856C145.818 52.424 145.67 52.068 145.374 51.788C145.078 51.508 144.666 51.368 144.138 51.368Z" fill="white"/>
<path d="M153.841 50.6H155.785V56.948C155.785 57.02 155.789 57.112 155.797 57.224C155.805 57.328 155.813 57.44 155.821 57.56C155.837 57.68 155.853 57.8 155.869 57.92C155.885 58.032 155.901 58.132 155.917 58.22H156.721V59H155.125L155.005 58.076H154.957C154.781 58.38 154.517 58.636 154.165 58.844C153.821 59.044 153.421 59.144 152.965 59.144C152.061 59.144 151.393 58.892 150.961 58.388C150.537 57.876 150.325 57.084 150.325 56.012C150.325 55.508 150.397 55.064 150.541 54.68C150.685 54.288 150.889 53.964 151.153 53.708C151.425 53.444 151.749 53.244 152.125 53.108C152.501 52.972 152.921 52.904 153.385 52.904C153.553 52.904 153.701 52.908 153.829 52.916C153.965 52.924 154.089 52.936 154.201 52.952C154.313 52.968 154.417 52.992 154.513 53.024C154.617 53.048 154.729 53.076 154.849 53.108V51.404H153.841V50.6ZM153.121 58.34C153.609 58.34 153.993 58.216 154.273 57.968C154.553 57.712 154.745 57.332 154.849 56.828V54.044C154.673 53.924 154.473 53.836 154.249 53.78C154.033 53.724 153.745 53.696 153.385 53.696C152.745 53.696 152.241 53.884 151.873 54.26C151.505 54.628 151.321 55.212 151.321 56.012C151.321 56.34 151.349 56.648 151.405 56.936C151.469 57.216 151.569 57.46 151.705 57.668C151.849 57.876 152.037 58.04 152.269 58.16C152.501 58.28 152.785 58.34 153.121 58.34Z" fill="white"/>
<path d="M160.052 58.136H161.936V51.824L160.016 53.168L159.548 52.484L162.188 50.6H162.86V58.136H164.708V59H160.052V58.136Z" fill="white"/>
<path d="M173.404 52.724C173.404 53.46 173.056 54.28 172.36 55.184C171.664 56.088 170.692 57.072 169.444 58.136H173.668V59H168.34V58.136C168.492 57.992 168.7 57.804 168.964 57.572C169.228 57.34 169.512 57.084 169.816 56.804C170.12 56.516 170.428 56.208 170.74 55.88C171.06 55.552 171.348 55.216 171.604 54.872C171.86 54.528 172.068 54.184 172.228 53.84C172.388 53.496 172.468 53.164 172.468 52.844C172.468 52.364 172.34 51.988 172.084 51.716C171.836 51.436 171.46 51.296 170.956 51.296C170.524 51.296 170.16 51.344 169.864 51.44C169.568 51.536 169.3 51.676 169.06 51.86L168.652 51.2C169.012 50.944 169.392 50.756 169.792 50.636C170.2 50.516 170.644 50.456 171.124 50.456C171.876 50.456 172.444 50.66 172.828 51.068C173.212 51.476 173.404 52.028 173.404 52.724Z" fill="white"/>
<path d="M179.255 58.316C179.575 58.316 179.867 58.276 180.131 58.196C180.403 58.108 180.639 57.988 180.839 57.836C181.039 57.684 181.195 57.5 181.307 57.284C181.419 57.068 181.475 56.828 181.475 56.564C181.475 56.012 181.279 55.62 180.887 55.388C180.503 55.148 179.983 55.028 179.327 55.028H178.559V54.452L180.923 51.464H177.335V50.6H182.075V51.464L179.711 54.236H179.903C180.271 54.236 180.607 54.288 180.911 54.392C181.215 54.496 181.479 54.644 181.703 54.836C181.927 55.028 182.099 55.26 182.219 55.532C182.347 55.804 182.411 56.112 182.411 56.456C182.411 56.888 182.327 57.272 182.159 57.608C181.991 57.944 181.763 58.228 181.475 58.46C181.187 58.684 180.847 58.856 180.455 58.976C180.071 59.088 179.659 59.144 179.219 59.144C178.811 59.144 178.455 59.112 178.151 59.048C177.855 58.992 177.583 58.92 177.335 58.832L177.575 57.992C177.783 58.088 178.027 58.168 178.307 58.232C178.587 58.288 178.903 58.316 179.255 58.316Z" fill="white"/>
<path d="M290.05 82.136H291.934V75.824L290.014 77.168L289.546 76.484L292.186 74.6H292.858V82.136H294.706V83H290.05V82.136Z" fill="white"/>
<path d="M303.401 76.724C303.401 77.46 303.053 78.28 302.357 79.184C301.661 80.088 300.689 81.072 299.441 82.136H303.665V83H298.337V82.136C298.489 81.992 298.697 81.804 298.961 81.572C299.225 81.34 299.509 81.084 299.813 80.804C300.117 80.516 300.425 80.208 300.737 79.88C301.057 79.552 301.345 79.216 301.601 78.872C301.857 78.528 302.065 78.184 302.225 77.84C302.385 77.496 302.465 77.164 302.465 76.844C302.465 76.364 302.337 75.988 302.081 75.716C301.833 75.436 301.457 75.296 300.953 75.296C300.521 75.296 300.157 75.344 299.861 75.44C299.565 75.536 299.297 75.676 299.057 75.86L298.649 75.2C299.009 74.944 299.389 74.756 299.789 74.636C300.197 74.516 300.641 74.456 301.121 74.456C301.873 74.456 302.441 74.66 302.825 75.068C303.209 75.476 303.401 76.028 303.401 76.724Z" fill="white"/>
<path d="M309.252 82.316C309.572 82.316 309.864 82.276 310.128 82.196C310.4 82.108 310.636 81.988 310.836 81.836C311.036 81.684 311.192 81.5 311.304 81.284C311.416 81.068 311.472 80.828 311.472 80.564C311.472 80.012 311.276 79.62 310.884 79.388C310.5 79.148 309.98 79.028 309.324 79.028H308.556V78.452L310.92 75.464H307.332V74.6H312.072V75.464L309.708 78.236H309.9C310.268 78.236 310.604 78.288 310.908 78.392C311.212 78.496 311.476 78.644 311.7 78.836C311.924 79.028 312.096 79.26 312.216 79.532C312.344 79.804 312.408 80.112 312.408 80.456C312.408 80.888 312.324 81.272 312.156 81.608C311.988 81.944 311.76 82.228 311.472 82.46C311.184 82.684 310.844 82.856 310.452 82.976C310.068 83.088 309.656 83.144 309.216 83.144C308.808 83.144 308.452 83.112 308.148 83.048C307.852 82.992 307.58 82.92 307.332 82.832L307.572 81.992C307.78 82.088 308.024 82.168 308.304 82.232C308.584 82.288 308.9 82.316 309.252 82.316Z" fill="white"/>
<path d="M316.304 79.1C316.304 79.028 316.3 78.936 316.292 78.824C316.292 78.704 316.288 78.584 316.28 78.464C316.272 78.336 316.26 78.212 316.244 78.092C316.236 77.972 316.224 77.868 316.208 77.78H315.404V77H317L317.12 77.84H317.18C317.396 77.56 317.668 77.328 317.996 77.144C318.332 76.952 318.74 76.856 319.22 76.856C320.076 76.856 320.72 77.092 321.152 77.564C321.584 78.036 321.8 78.808 321.8 79.88C321.8 80.384 321.724 80.84 321.572 81.248C321.428 81.648 321.22 81.988 320.948 82.268C320.676 82.548 320.348 82.764 319.964 82.916C319.58 83.068 319.156 83.144 318.692 83.144C318.524 83.144 318.372 83.136 318.236 83.12C318.108 83.112 317.988 83.096 317.876 83.072C317.772 83.056 317.668 83.032 317.564 83C317.46 82.968 317.348 82.928 317.228 82.88V85.4H316.304V79.1ZM319.064 77.732C318.824 77.732 318.596 77.776 318.38 77.864C318.172 77.952 317.984 78.068 317.816 78.212C317.656 78.356 317.524 78.516 317.42 78.692C317.316 78.868 317.252 79.044 317.228 79.22V81.956C317.404 82.076 317.6 82.172 317.816 82.244C318.04 82.308 318.332 82.34 318.692 82.34C319.332 82.34 319.844 82.132 320.228 81.716C320.612 81.292 320.804 80.676 320.804 79.868C320.804 79.188 320.668 78.664 320.396 78.296C320.132 77.92 319.688 77.732 319.064 77.732Z" fill="white"/>
<path d="M329.199 80.672H325.971L325.203 83H324.219L327.027 74.6H328.203L331.035 83H329.991L329.199 80.672ZM326.283 79.808H328.923L327.687 75.86H327.543L326.283 79.808Z" fill="white"/>
<path d="M338.158 81.38C338.158 81.124 338.058 80.928 337.858 80.792C337.658 80.648 337.41 80.536 337.114 80.456C336.818 80.368 336.494 80.288 336.142 80.216C335.798 80.144 335.478 80.048 335.182 79.928C334.886 79.808 334.638 79.648 334.438 79.448C334.238 79.24 334.138 78.952 334.138 78.584C334.138 78.28 334.202 78.02 334.33 77.804C334.466 77.588 334.642 77.412 334.858 77.276C335.074 77.132 335.326 77.028 335.614 76.964C335.902 76.892 336.202 76.856 336.514 76.856C337.074 76.856 337.554 76.928 337.954 77.072C338.362 77.208 338.686 77.352 338.926 77.504L338.542 78.26C338.278 78.116 337.99 77.98 337.678 77.852C337.374 77.716 336.99 77.648 336.526 77.648C336.35 77.648 336.174 77.668 335.998 77.708C335.83 77.74 335.674 77.792 335.53 77.864C335.394 77.936 335.282 78.032 335.194 78.152C335.114 78.264 335.074 78.404 335.074 78.572C335.074 78.78 335.174 78.94 335.374 79.052C335.574 79.164 335.822 79.26 336.118 79.34C336.414 79.412 336.734 79.484 337.078 79.556C337.43 79.62 337.754 79.716 338.05 79.844C338.346 79.972 338.594 80.144 338.794 80.36C338.994 80.576 339.094 80.868 339.094 81.236C339.094 81.788 338.874 82.244 338.434 82.604C338.002 82.964 337.35 83.144 336.478 83.144C336.214 83.144 335.954 83.12 335.698 83.072C335.442 83.024 335.202 82.96 334.978 82.88C334.754 82.8 334.55 82.712 334.366 82.616C334.182 82.512 334.03 82.408 333.91 82.304L334.39 81.524C334.486 81.62 334.614 81.72 334.774 81.824C334.934 81.92 335.11 82.008 335.302 82.088C335.494 82.168 335.698 82.232 335.914 82.28C336.138 82.328 336.362 82.352 336.586 82.352C336.802 82.352 337.002 82.336 337.186 82.304C337.378 82.264 337.546 82.208 337.69 82.136C337.834 82.056 337.946 81.956 338.026 81.836C338.114 81.708 338.158 81.556 338.158 81.38Z" fill="white"/>
<path d="M343.578 81.812C343.818 81.94 344.086 82.048 344.382 82.136C344.686 82.216 344.99 82.256 345.294 82.256C345.558 82.256 345.806 82.232 346.038 82.184C346.27 82.128 346.47 82.044 346.638 81.932C346.814 81.812 346.95 81.664 347.046 81.488C347.15 81.312 347.202 81.104 347.202 80.864C347.202 80.536 347.09 80.268 346.866 80.06C346.65 79.852 346.378 79.668 346.05 79.508C345.722 79.348 345.366 79.192 344.982 79.04C344.598 78.888 344.242 78.708 343.914 78.5C343.586 78.292 343.31 78.04 343.086 77.744C342.87 77.44 342.762 77.056 342.762 76.592C342.762 76.264 342.826 75.968 342.954 75.704C343.09 75.44 343.278 75.216 343.518 75.032C343.758 74.848 344.046 74.708 344.382 74.612C344.726 74.508 345.106 74.456 345.522 74.456C346.002 74.456 346.438 74.492 346.83 74.564C347.222 74.628 347.534 74.716 347.766 74.828L347.79 74.816V74.84H347.802L347.79 74.876V76.796H346.902V75.512C346.702 75.464 346.482 75.424 346.242 75.392C346.002 75.36 345.746 75.344 345.474 75.344C345.21 75.344 344.97 75.376 344.754 75.44C344.546 75.504 344.366 75.592 344.214 75.704C344.07 75.808 343.958 75.932 343.878 76.076C343.798 76.22 343.758 76.372 343.758 76.532C343.758 76.844 343.866 77.104 344.082 77.312C344.306 77.52 344.582 77.708 344.91 77.876C345.238 78.036 345.594 78.196 345.978 78.356C346.362 78.516 346.718 78.704 347.046 78.92C347.374 79.128 347.646 79.38 347.862 79.676C348.086 79.972 348.198 80.34 348.198 80.78C348.198 81.14 348.13 81.464 347.994 81.752C347.866 82.04 347.678 82.288 347.43 82.496C347.19 82.704 346.89 82.864 346.53 82.976C346.178 83.088 345.778 83.144 345.33 83.144C345.026 83.144 344.738 83.12 344.466 83.072C344.194 83.024 343.942 82.964 343.71 82.892C343.486 82.82 343.282 82.744 343.098 82.664C342.922 82.584 342.782 82.516 342.678 82.46L342.69 82.424V80.48H343.578V81.812Z" fill="white"/>
<path d="M354.721 78.32L355.921 81.656H356.005L356.857 77H357.733L356.557 83H355.489L354.337 79.688H354.301L353.101 83H352.033L350.773 77H351.697L352.669 81.68H352.741L353.905 78.32H354.721Z" fill="white"/>
<path d="M360.212 80C360.212 79.032 360.464 78.268 360.968 77.708C361.472 77.14 362.192 76.856 363.128 76.856C363.632 76.856 364.064 76.94 364.424 77.108C364.792 77.268 365.096 77.488 365.336 77.768C365.576 78.048 365.752 78.38 365.864 78.764C365.984 79.148 366.044 79.56 366.044 80C366.044 80.48 365.98 80.916 365.852 81.308C365.724 81.692 365.536 82.02 365.288 82.292C365.04 82.564 364.732 82.776 364.364 82.928C364.004 83.072 363.592 83.144 363.128 83.144C362.632 83.144 362.2 83.064 361.832 82.904C361.464 82.736 361.16 82.512 360.92 82.232C360.68 81.952 360.5 81.62 360.38 81.236C360.268 80.852 360.212 80.44 360.212 80ZM361.208 80C361.208 80.28 361.24 80.56 361.304 80.84C361.376 81.12 361.488 81.372 361.64 81.596C361.792 81.82 361.988 82 362.228 82.136C362.476 82.272 362.776 82.34 363.128 82.34C363.768 82.34 364.248 82.144 364.568 81.752C364.896 81.352 365.06 80.768 365.06 80C365.06 79.712 365.024 79.432 364.952 79.16C364.888 78.88 364.776 78.628 364.616 78.404C364.464 78.18 364.264 78 364.016 77.864C363.776 77.728 363.48 77.66 363.128 77.66C362.488 77.66 362.008 77.856 361.688 78.248C361.368 78.64 361.208 79.224 361.208 80Z" fill="white"/>
<path d="M369.076 84.62H374.932V85.46H369.076V84.62Z" fill="white"/>
<path d="M378.239 74.6C378.543 74.56 378.859 74.536 379.187 74.528C379.523 74.512 379.807 74.504 380.039 74.504C380.767 74.504 381.375 74.608 381.863 74.816C382.359 75.024 382.755 75.316 383.051 75.692C383.355 76.06 383.571 76.504 383.699 77.024C383.835 77.544 383.903 78.116 383.903 78.74C383.903 79.308 383.843 79.856 383.723 80.384C383.603 80.904 383.395 81.368 383.099 81.776C382.803 82.176 382.403 82.5 381.899 82.748C381.403 82.988 380.779 83.108 380.027 83.108C379.923 83.108 379.787 83.104 379.619 83.096C379.451 83.096 379.279 83.088 379.103 83.072C378.927 83.064 378.759 83.056 378.599 83.048C378.439 83.04 378.319 83.028 378.239 83.012V74.6ZM380.087 75.392C379.975 75.392 379.831 75.396 379.655 75.404C379.487 75.412 379.347 75.428 379.235 75.452V82.172C379.275 82.18 379.331 82.188 379.403 82.196C379.483 82.196 379.563 82.2 379.643 82.208C379.723 82.208 379.799 82.212 379.871 82.22C379.951 82.22 380.015 82.22 380.063 82.22C380.647 82.22 381.119 82.124 381.479 81.932C381.847 81.74 382.131 81.484 382.331 81.164C382.531 80.836 382.667 80.464 382.739 80.048C382.811 79.624 382.847 79.188 382.847 78.74C382.847 78.348 382.815 77.956 382.751 77.564C382.687 77.164 382.555 76.804 382.355 76.484C382.163 76.164 381.883 75.904 381.515 75.704C381.155 75.496 380.679 75.392 380.087 75.392Z" fill="white"/>
<defs>
<filter id="filter0_f" x="0" y="0" width="457" height="465" filterUnits="userSpaceOnUse" color-interpolation-filters="sRGB">
<feFlood flood-opacity="0" result="BackgroundImageFix"/>
<feBlend mode="normal" in="SourceGraphic" in2="BackgroundImageFix" result="shape"/>
<feGaussianBlur stdDeviation="50" result="effect1_foregroundBlur"/>
</filter>
</defs>
</svg>
