<svg width="454" height="424" viewBox="0 0 454 424" fill="none" xmlns="http://www.w3.org/2000/svg">
<g filter="url(#filter0_f)">
<ellipse cx="219" cy="212" rx="119" ry="112" fill="#8DD4C6"/>
</g>
<path d="M193.5 213.5V126L191 111H229C230.5 92.4999 233.8 67.8999 235 117.5C236.2 167.1 223.167 179.833 216.5 180L218.5 211.5L193.5 213.5Z" fill="#DFF3EF"/>
<path fill-rule="evenodd" clip-rule="evenodd" d="M312.978 295.57C312.978 295.464 312.979 295.358 312.979 295.252C312.979 241.706 265.302 198.299 206.489 198.299C147.677 198.299 100 241.706 100 295.252L100 295.459L100 295.57C100 309.614 111.386 321 125.43 321L125.501 321H304.714V295.57H312.978ZM148.11 282.465C147.005 282.465 146.11 283.36 146.11 284.465C146.11 285.569 147.005 286.465 148.11 286.465L198.224 286.465C199.329 286.465 200.224 285.569 200.224 284.465C200.224 283.36 199.329 282.465 198.224 282.465L148.11 282.465Z" fill="#0E131F"/>
<path d="M212.777 240.548C213.322 238.914 214.85 237.813 216.572 237.813H332.92C335.65 237.813 337.578 240.488 336.715 243.078L311.653 318.265C311.108 319.898 309.58 321 307.858 321H191.51C188.78 321 186.852 318.325 187.715 315.735L212.777 240.548Z" fill="#DFF3EF"/>
<path d="M217.777 240.548C218.322 238.914 219.85 237.813 221.572 237.813H337.92C340.65 237.813 342.578 240.488 341.715 243.078L316.653 318.265C316.108 319.898 314.58 321 312.858 321H196.51C193.78 321 191.852 318.325 192.715 315.735L217.777 240.548Z" fill="#DFF3EF"/>
<path d="M223.504 238.813H339.852C341.9 238.813 343.346 240.819 342.698 242.761L317.636 317.949C317.228 319.174 316.081 320 314.79 320H198.442C196.394 320 194.948 317.994 195.596 316.051L220.658 240.864C221.067 239.639 222.213 238.813 223.504 238.813Z" stroke="#0E131F" stroke-width="2"/>
<mask id="path-7-inside-1" fill="white">
<path fill-rule="evenodd" clip-rule="evenodd" d="M223.394 183.354C235.06 178.967 240.725 161.819 240.725 143.205C240.725 121.602 239.293 99.8606 223.509 99.8606C210.052 99.8606 194.263 117.202 189.9 135.703C189.11 135.295 188.248 135.072 187.347 135.072C183.518 135.072 180.414 139.106 180.414 144.084C180.414 149.061 183.518 153.096 187.347 153.096C187.821 153.096 188.285 153.033 188.733 152.915V204.538C188.733 207.218 196.492 209.39 206.064 209.39C215.635 209.39 223.394 207.218 223.394 204.538V183.354Z"/>
</mask>
<path d="M223.394 183.354L223.042 182.418L222.394 182.662V183.354H223.394ZM189.9 135.703L189.442 136.592L190.58 137.178L190.873 135.932L189.9 135.703ZM188.733 152.915H189.733V151.617L188.478 151.948L188.733 152.915ZM239.725 143.205C239.725 152.422 238.321 161.229 235.506 168.242C232.686 175.269 228.509 180.362 223.042 182.418L223.746 184.29C229.945 181.959 234.433 176.285 237.362 168.987C240.297 161.676 241.725 152.602 241.725 143.205H239.725ZM223.509 100.861C227.196 100.861 229.987 102.118 232.147 104.299C234.337 106.509 235.933 109.724 237.075 113.707C239.361 121.689 239.725 132.389 239.725 143.205H241.725C241.725 132.417 241.372 121.446 238.997 113.156C237.807 109.004 236.086 105.433 233.568 102.891C231.021 100.321 227.714 98.8606 223.509 98.8606V100.861ZM190.873 135.932C193.012 126.862 197.961 118.054 204.027 111.524C210.119 104.966 217.184 100.861 223.509 100.861V98.8606C216.378 98.8606 208.819 103.426 202.561 110.163C196.277 116.929 191.15 126.042 188.927 135.473L190.873 135.932ZM187.347 136.072C188.079 136.072 188.784 136.253 189.442 136.592L190.358 134.814C189.435 134.338 188.418 134.072 187.347 134.072V136.072ZM181.414 144.084C181.414 141.796 182.128 139.762 183.237 138.321C184.345 136.881 185.807 136.072 187.347 136.072V134.072C185.058 134.072 183.053 135.28 181.652 137.101C180.252 138.922 179.414 141.394 179.414 144.084H181.414ZM187.347 152.096C185.807 152.096 184.345 151.287 183.237 149.846C182.128 148.405 181.414 146.371 181.414 144.084H179.414C179.414 146.774 180.252 149.246 181.652 151.066C183.053 152.887 185.058 154.096 187.347 154.096V152.096ZM188.478 151.948C188.112 152.045 187.734 152.096 187.347 152.096V154.096C187.909 154.096 188.459 154.022 188.988 153.882L188.478 151.948ZM189.733 204.538V152.915H187.733V204.538H189.733ZM206.064 208.39C201.342 208.39 197.105 207.853 194.079 207.006C192.559 206.581 191.401 206.092 190.647 205.593C189.854 205.068 189.733 204.691 189.733 204.538H187.733C187.733 205.725 188.582 206.625 189.543 207.261C190.543 207.922 191.923 208.48 193.539 208.932C196.786 209.841 201.214 210.39 206.064 210.39V208.39ZM222.394 204.538C222.394 204.691 222.274 205.068 221.48 205.593C220.726 206.092 219.569 206.581 218.049 207.006C215.023 207.853 210.785 208.39 206.064 208.39V210.39C210.914 210.39 215.341 209.841 218.588 208.932C220.204 208.48 221.585 207.922 222.584 207.261C223.545 206.625 224.394 205.725 224.394 204.538H222.394ZM222.394 183.354V204.538H224.394V183.354H222.394Z" fill="#0E131F" mask="url(#path-7-inside-1)"/>
<path d="M206.41 179.928C210.849 182.524 217.961 183.783 223.394 182.701V198.992C214.263 191.901 201.972 177.332 206.41 179.928Z" fill="#0E131F"/>
<path d="M214.729 135.9C212.996 134.86 208.421 133.404 203.984 135.9" stroke="#0E131F"/>
<path d="M235.526 135.9C233.793 134.86 229.217 133.404 224.781 135.9" stroke="#0E131F"/>
<path d="M208.837 159.132C210.223 161.442 214.521 165.786 220.621 164.677" stroke="#0E131F"/>
<ellipse cx="210.57" cy="144.92" rx="1.73307" ry="3.46613" fill="#0E131F"/>
<ellipse cx="230.673" cy="144.92" rx="1.73307" ry="3.46613" fill="#0E131F"/>
<path d="M219.928 145.267L222.701 155.665H215.769" stroke="#0E131F"/>
<path fill-rule="evenodd" clip-rule="evenodd" d="M196.811 119.271L195.078 141.108H193.084C192.093 137.971 189.742 135.765 187 135.765C185.72 135.765 184.526 136.245 183.516 137.076C182.049 133.11 180.067 126.216 178.094 115.458C175.299 100.213 186.066 96.997 193.222 97.2768C190.981 99.5698 188.841 101.937 187.881 103.496C187.592 103.966 187.739 104.582 188.209 104.872C188.679 105.161 189.295 105.014 189.585 104.544C190.619 102.863 193.414 99.8799 196.205 97.1106C198.971 94.3661 201.595 91.967 202.191 91.4791C202.219 91.4565 202.245 91.4326 202.269 91.4078C208.297 87.2152 214.71 84.3589 217.955 83.2231C241.509 75.1337 245.993 90.7932 245.113 103.358C244.819 104.512 244.649 105.413 244.469 106.362L244.469 106.362L244.469 106.364C244.419 106.629 244.368 106.899 244.313 107.178C244.04 108.579 243.663 110.317 242.804 113.306C242.652 113.836 242.959 114.39 243.49 114.543C244.021 114.695 244.574 114.388 244.727 113.858C245.034 112.789 245.281 111.874 245.485 111.074C249.821 119.812 244.371 137.636 240.725 143.534C240.272 132.789 238.876 122.275 237.259 119.271C229.623 124.759 212.191 121.828 201.441 120.021L201.441 120.021C199.699 119.728 198.132 119.464 196.811 119.271Z" fill="#0E131F"/>
<path fill-rule="evenodd" clip-rule="evenodd" d="M290 112C283.373 112 278 117.373 278 124V163.57C278 170.198 283.373 175.57 290 175.57H397.68V192.819C397.68 196.678 402.606 198.3 404.898 195.195L419.387 175.57H442C448.627 175.57 454 170.198 454 163.57V124C454 117.373 448.627 112 442 112H290Z" fill="#0E131F"/>
<path d="M313.435 148.021L315.902 144.413L312 143.132L312.631 141.037L316.59 142.55L316.476 138.302H318.828L318.714 142.55L322.673 141.037L323.304 143.132L319.402 144.413L321.927 148.021L320.091 149.302L317.681 145.519L315.213 149.302L313.435 148.021Z" fill="white"/>
<path d="M337.609 148.021L340.076 144.413L336.174 143.132L336.805 141.037L340.764 142.55L340.65 138.302H343.002L342.888 142.55L346.847 141.037L347.478 143.132L343.576 144.413L346.101 148.021L344.265 149.302L341.855 145.519L339.387 149.302L337.609 148.021Z" fill="white"/>
<path d="M361.782 148.021L364.25 144.413L360.348 143.132L360.979 141.037L364.938 142.55L364.824 138.302H367.176L367.062 142.55L371.021 141.037L371.652 143.132L367.75 144.413L370.275 148.021L368.439 149.302L366.029 145.519L363.561 149.302L361.782 148.021Z" fill="white"/>
<path d="M385.956 148.021L388.424 144.413L384.522 143.132L385.153 141.037L389.112 142.55L388.998 138.302H391.35L391.236 142.55L395.195 141.037L395.826 143.132L391.924 144.413L394.449 148.021L392.613 149.302L390.203 145.519L387.735 149.302L385.956 148.021Z" fill="white"/>
<path d="M410.13 148.021L412.598 144.413L408.696 143.132L409.327 141.037L413.286 142.55L413.172 138.302H415.524L415.41 142.55L419.369 141.037L420 143.132L416.098 144.413L418.623 148.021L416.787 149.302L414.377 145.519L411.909 149.302L410.13 148.021Z" fill="white"/>
<path d="M146 317C146 314.791 147.791 313 150 313H193V321H150C147.791 321 146 319.209 146 317V317Z" fill="#DFF3EF"/>
<path d="M82 320.5H338.5" stroke="#0E131F" stroke-width="2" stroke-linecap="round"/>
<path d="M281.888 267.535L285.452 269.362C285.931 269.607 286.132 270.184 285.909 270.673C285.671 271.197 285.042 271.415 284.53 271.151L281.028 269.347L280.434 273.381C280.353 273.932 279.841 274.314 279.289 274.235C278.733 274.156 278.348 273.64 278.43 273.086L279.045 268.941L274.893 269.556C274.337 269.638 273.821 269.253 273.742 268.698C273.663 268.147 274.045 267.636 274.597 267.555L278.639 266.963L276.832 263.468C276.568 262.956 276.786 262.328 277.311 262.09C277.8 261.868 278.379 262.069 278.624 262.547L280.455 266.104L283.154 263.41C283.55 263.015 284.191 263.015 284.587 263.41C284.983 263.805 284.983 264.446 284.587 264.841L281.888 267.535ZM261.627 271.586C265.781 268.699 271.536 269.104 275.24 272.802C279.401 276.955 279.401 283.688 275.24 287.841C274.859 288.221 274.457 288.566 274.036 288.877C273.963 288.495 273.844 288.102 273.691 287.709C273.13 286.271 272.044 284.673 270.589 283.221C270.285 282.917 269.791 282.917 269.487 283.221C269.182 283.525 269.182 284.018 269.487 284.321C270.826 285.658 271.772 287.081 272.238 288.274C272.471 288.871 272.57 289.376 272.563 289.763L272.562 289.79C272.323 289.912 272.081 290.025 271.835 290.127L271.841 290.133L262.849 293.737C262.779 293.374 262.635 292.994 262.449 292.622C262.007 291.731 261.249 290.717 260.295 289.764C259.991 289.46 259.497 289.46 259.192 289.764C258.888 290.068 258.888 290.561 259.192 290.864C260.06 291.731 260.704 292.611 261.053 293.313C261.229 293.668 261.31 293.938 261.33 294.113C261.336 294.163 261.336 294.195 261.335 294.215C261.29 294.269 261.253 294.327 261.224 294.388L255.289 296.768C252.74 297.789 250.208 295.261 251.234 292.718L256.188 280.427C256.217 280.411 256.244 280.394 256.271 280.375C256.3 280.377 256.343 280.383 256.405 280.397C256.64 280.45 256.989 280.594 257.436 280.853C258.319 281.364 259.435 282.236 260.556 283.354C260.86 283.658 261.354 283.658 261.658 283.354C261.963 283.05 261.963 282.558 261.658 282.254C260.471 281.069 259.249 280.103 258.218 279.506C257.728 279.223 257.245 279.001 256.807 278.893L257.656 276.785C258.074 275.598 258.71 274.471 259.562 273.465C259.681 273.429 259.793 273.364 259.887 273.27C260.013 273.145 260.23 273.039 260.613 273.032C261.002 273.024 261.507 273.123 262.106 273.356C263.301 273.82 264.726 274.765 266.065 276.102C266.37 276.405 266.864 276.405 267.168 276.102C267.472 275.798 267.472 275.305 267.168 275.001C265.713 273.549 264.112 272.466 262.672 271.906C262.32 271.769 261.97 271.66 261.627 271.586ZM256.236 280.373C256.229 280.374 256.225 280.374 256.226 280.375C256.226 280.375 256.23 280.375 256.236 280.373ZM261.333 294.235C261.332 294.239 261.331 294.241 261.331 294.241C261.331 294.241 261.332 294.239 261.333 294.235Z" fill="black"/>
<path d="M281.888 267.535L285.452 269.362C285.931 269.607 286.132 270.184 285.909 270.673C285.671 271.197 285.042 271.415 284.53 271.151L281.028 269.347L280.434 273.381C280.353 273.932 279.841 274.314 279.289 274.235C278.733 274.156 278.348 273.64 278.43 273.086L279.045 268.941L274.893 269.556C274.337 269.638 273.821 269.253 273.742 268.698C273.663 268.147 274.045 267.636 274.597 267.555L278.639 266.963L276.832 263.468C276.568 262.956 276.786 262.328 277.311 262.09C277.8 261.868 278.379 262.069 278.624 262.547L280.455 266.104L283.154 263.41C283.55 263.015 284.191 263.015 284.587 263.41C284.983 263.805 284.983 264.446 284.587 264.841L281.888 267.535ZM261.627 271.586C265.781 268.699 271.536 269.104 275.24 272.802C279.401 276.955 279.401 283.688 275.24 287.841C274.859 288.221 274.457 288.566 274.036 288.877C273.963 288.495 273.844 288.102 273.691 287.709C273.13 286.271 272.044 284.673 270.589 283.221C270.285 282.917 269.791 282.917 269.487 283.221C269.182 283.525 269.182 284.018 269.487 284.321C270.826 285.658 271.772 287.081 272.238 288.274C272.471 288.871 272.57 289.376 272.563 289.763L272.562 289.79C272.323 289.912 272.081 290.025 271.835 290.127L271.841 290.133L262.849 293.737C262.779 293.374 262.635 292.994 262.449 292.622C262.007 291.731 261.249 290.717 260.295 289.764C259.991 289.46 259.497 289.46 259.192 289.764C258.888 290.068 258.888 290.561 259.192 290.864C260.06 291.731 260.704 292.611 261.053 293.313C261.229 293.668 261.31 293.938 261.33 294.113C261.336 294.163 261.336 294.195 261.335 294.215C261.29 294.269 261.253 294.327 261.224 294.388L255.289 296.768C252.74 297.789 250.208 295.261 251.234 292.718L256.188 280.427C256.217 280.411 256.244 280.394 256.271 280.375C256.3 280.377 256.343 280.383 256.405 280.397C256.64 280.45 256.989 280.594 257.436 280.853C258.319 281.364 259.435 282.236 260.556 283.354C260.86 283.658 261.354 283.658 261.658 283.354C261.963 283.05 261.963 282.558 261.658 282.254C260.471 281.069 259.249 280.103 258.218 279.506C257.728 279.223 257.245 279.001 256.807 278.893L257.656 276.785C258.074 275.598 258.71 274.471 259.562 273.465C259.681 273.429 259.793 273.364 259.887 273.27C260.013 273.145 260.23 273.039 260.613 273.032C261.002 273.024 261.507 273.123 262.106 273.356C263.301 273.82 264.726 274.765 266.065 276.102C266.37 276.405 266.864 276.405 267.168 276.102C267.472 275.798 267.472 275.305 267.168 275.001C265.713 273.549 264.112 272.466 262.672 271.906C262.32 271.769 261.97 271.66 261.627 271.586ZM256.236 280.373C256.229 280.374 256.225 280.374 256.226 280.375C256.226 280.375 256.23 280.375 256.236 280.373ZM261.333 294.235C261.332 294.239 261.331 294.241 261.331 294.241C261.331 294.241 261.332 294.239 261.333 294.235Z" stroke="#2C2C2C"/>
<defs>
<filter id="filter0_f" x="0" y="0" width="438" height="424" filterUnits="userSpaceOnUse" color-interpolation-filters="sRGB">
<feFlood flood-opacity="0" result="BackgroundImageFix"/>
<feBlend mode="normal" in="SourceGraphic" in2="BackgroundImageFix" result="shape"/>
<feGaussianBlur stdDeviation="50" result="effect1_foregroundBlur"/>
</filter>
</defs>
</svg>
